<svg width="36" height="35" viewBox="0 0 36 35" fill="none" xmlns="http://www.w3.org/2000/svg">
<path d="M22.964 2.3771C25.4021 3.03143 27.6252 4.31554 29.4102 6.10054C31.1952 7.88554 32.4793 10.1086 33.1336 12.5467M21.4727 7.92908C22.9391 8.31852 24.2764 9.08867 25.3492 10.1615C26.4221 11.2343 27.1922 12.5717 27.5817 14.038M10.9437 17.6136C12.4228 20.6681 14.8928 23.1317 17.9511 24.603C18.1766 24.7098 18.4262 24.756 18.6751 24.7371C18.9239 24.7182 19.1636 24.6348 19.3705 24.4952L23.8624 21.4946C24.0608 21.36 24.2902 21.2778 24.529 21.2559C24.7677 21.2339 25.0082 21.2727 25.2279 21.3688L33.6367 24.9803C33.9241 25.0999 34.1642 25.3107 34.3201 25.5801C34.4759 25.8496 34.5388 26.1628 34.4992 26.4716C34.2327 28.5518 33.2173 30.4636 31.6431 31.8492C30.0689 33.2349 28.0438 33.9995 25.9466 34C19.4658 34 13.2505 31.4255 8.66784 26.8429C4.08523 22.2603 1.51074 16.0449 1.51074 9.56413C1.51121 7.46695 2.27583 5.4418 3.6615 3.86761C5.04718 2.29343 6.95897 1.27809 9.03915 1.01157C9.3479 0.971909 9.66113 1.03484 9.9306 1.19068C10.2001 1.34652 10.4108 1.58662 10.5305 1.87401L14.1419 10.3008C14.2358 10.517 14.2751 10.753 14.2563 10.988C14.2375 11.223 14.1612 11.4498 14.0341 11.6484L11.0335 16.2121C10.9 16.4185 10.8216 16.6558 10.8058 16.9011C10.7901 17.1465 10.8376 17.3918 10.9437 17.6136Z" stroke="#0152A8" stroke-width="2" stroke-linecap="round" stroke-linejoin="round"/>
</svg>
