<svg width="15" height="18" viewBox="0 0 15 18" fill="none" xmlns="http://www.w3.org/2000/svg">
<path d="M8.48613 17.3334L8.27779 14.9723H7.65277C5.6713 14.9723 3.9838 14.2755 2.59027 12.882C1.19676 11.4885 0.5 9.80101 0.5 7.81952C0.5 5.83805 1.19908 4.15055 2.59723 2.75702C3.99537 1.36351 5.68981 0.666748 7.68056 0.666748C8.66667 0.666748 9.58218 0.846144 10.4271 1.20494C11.272 1.56374 12.0104 2.06374 12.6424 2.70494C13.2743 3.34614 13.7697 4.09846 14.1285 4.96189C14.4873 5.82531 14.6667 6.76396 14.6667 7.77785C14.6667 9.7223 14.1065 11.5498 12.9861 13.2605C11.8658 14.9712 10.3658 16.3288 8.48613 17.3334ZM7.6736 12.5626C7.90047 12.5626 8.0926 12.4839 8.25 12.3265C8.4074 12.1691 8.4861 11.9769 8.4861 11.7501C8.4861 11.5232 8.4074 11.3311 8.25 11.1737C8.0926 11.0163 7.90047 10.9376 7.6736 10.9376C7.44676 10.9376 7.25463 11.0163 7.09723 11.1737C6.93983 11.3311 6.86113 11.5232 6.86113 11.7501C6.86113 11.9769 6.93983 12.1691 7.09723 12.3265C7.25463 12.4839 7.44676 12.5626 7.6736 12.5626ZM7.65277 9.79175C7.7963 9.79175 7.92362 9.74083 8.03473 9.63898C8.14584 9.53713 8.2176 9.40287 8.25 9.23621C8.28704 9.04639 8.37038 8.86699 8.5 8.698C8.62963 8.52901 8.83796 8.30101 9.125 8.01398C9.45833 7.68064 9.7037 7.3612 9.8611 7.05564C10.0185 6.75009 10.0972 6.42138 10.0972 6.06952C10.0972 5.41674 9.87617 4.89707 9.43404 4.5105C8.9919 4.12393 8.42593 3.93064 7.73613 3.93064C7.25001 3.93064 6.81135 4.03944 6.42015 4.25702C6.02894 4.47462 5.71297 4.7686 5.47223 5.13898C5.38426 5.27323 5.36921 5.41212 5.42708 5.55564C5.48496 5.69916 5.59723 5.80564 5.7639 5.87508C5.88426 5.92137 6.00926 5.92137 6.1389 5.87508C6.26852 5.82879 6.37963 5.74314 6.47223 5.61814C6.61112 5.41906 6.78357 5.2686 6.98958 5.16675C7.1956 5.06489 7.43055 5.01396 7.69444 5.01396C8.09723 5.01396 8.40858 5.11581 8.62848 5.31952C8.84838 5.52323 8.95833 5.77786 8.95833 6.08342C8.95833 6.33804 8.88426 6.58688 8.73612 6.82994C8.58797 7.07299 8.35185 7.36119 8.02777 7.69454C7.7037 8.00935 7.47801 8.2686 7.35071 8.47231C7.22339 8.67602 7.14584 8.93065 7.11806 9.23621C7.10417 9.38435 7.14931 9.51397 7.25348 9.62508C7.35765 9.73619 7.49074 9.79175 7.65277 9.79175Z" fill="white"/>
</svg>
