<svg width="36" height="35" viewBox="0 0 36 35" fill="none" xmlns="http://www.w3.org/2000/svg">
<path d="M24.5605 17.4964C24.5605 21.2933 21.4825 24.3714 17.6856 24.3714C13.8886 24.3714 10.8106 21.2933 10.8106 17.4964C10.8106 13.6994 13.8886 10.6214 17.6856 10.6214C21.4825 10.6214 24.5605 13.6994 24.5605 17.4964ZM24.5605 17.4964C24.5605 21.2948 25.9355 24.3714 29.373 24.3714C32.8105 24.3714 34.1855 21.2948 34.1855 17.4964C34.1847 13.8202 32.9562 10.2495 30.6949 7.35103C28.4336 4.45254 25.2692 2.39221 21.7037 1.49698C18.1381 0.601742 14.3757 0.922873 11.0135 2.40941C7.65124 3.89596 4.88173 6.46276 3.14439 9.70254C1.40706 12.9423 0.801424 16.6695 1.42358 20.2927C2.04574 23.9159 3.86006 27.2275 6.57865 29.7021C9.29724 32.1768 12.7644 33.6726 16.4299 33.9524C20.0955 34.2321 23.7495 33.2798 26.8121 31.2464M24.5605 17.4964V10.6214" stroke="#0152A8" stroke-width="2" stroke-linecap="round" stroke-linejoin="round"/>
</svg>
