<?xml version="1.0" encoding="utf-8"?>
<!-- Generator: Adobe Illustrator 26.0.1, SVG Export Plug-In . SVG Version: 6.00 Build 0)  -->
<svg version="1.1" id="Layer_1" xmlns="http://www.w3.org/2000/svg" xmlns:xlink="http://www.w3.org/1999/xlink" x="0px" y="0px"
	 viewBox="0 0 18 18" style="enable-background:new 0 0 18 18;" xml:space="preserve">
<style type="text/css">
	.st0{fill:#FFFFFF;}
</style>
<path class="st0" d="M6.1,2.4C4,2.4,2.4,4,2.4,6.1v5.9c0,2,1.6,3.7,3.7,3.7h5.9c2,0,3.7-1.6,3.7-3.7V6.1c0-2-1.6-3.7-3.7-3.7H6.1z
	 M13.4,3.9c0.4,0,0.7,0.3,0.7,0.7c0,0.4-0.3,0.7-0.7,0.7c-0.4,0-0.7-0.3-0.7-0.7C12.7,4.2,13,3.9,13.4,3.9z M9,5.3
	c2,0,3.7,1.6,3.7,3.7S11,12.7,9,12.7S5.3,11,5.3,9S7,5.3,9,5.3z M9,6.8c-1.2,0-2.2,1-2.2,2.2c0,1.2,1,2.2,2.2,2.2
	c1.2,0,2.2-1,2.2-2.2c0-0.6-0.2-1.1-0.6-1.6C10.1,7,9.6,6.8,9,6.8z"/>
</svg>
