<svg width="49" height="48" viewBox="0 0 49 48" fill="none" xmlns="http://www.w3.org/2000/svg">
<path d="M38.9174 7.95C36.5924 5.775 33.2174 4.5 29.1674 4.5C27.3674 4.5 25.8674 4.725 24.4424 5.175C23.0924 4.725 21.5174 4.5 19.7924 4.5H19.7174C19.6424 4.5 19.6424 4.5 19.5674 4.5C15.6674 4.575 12.3674 5.775 10.1174 7.95C7.71738 10.2 6.44238 13.35 6.44238 16.95C6.44238 19.65 7.41738 21.75 8.54238 23.7C9.66738 25.65 10.8674 27.525 11.5424 30C12.2924 32.85 12.8924 36.075 13.7174 38.7C14.1674 39.975 14.6174 41.175 15.2924 42C15.9674 42.825 16.9424 43.5 18.1424 43.5C19.2674 43.5 20.3174 43.05 20.9924 42.225C21.6674 41.4 21.9674 40.275 21.9674 38.925C21.9674 35.55 22.6424 30.975 23.3924 27.15C23.5424 26.55 23.9174 26.325 24.3674 26.325C24.8174 26.325 25.1924 26.475 25.2674 27.075C25.9424 30.9 26.6924 35.475 26.6924 38.925C26.6924 40.275 26.9924 41.4 27.6674 42.225C28.3424 43.05 29.3924 43.5 30.5174 43.5C31.7174 43.5 32.6924 42.9 33.3674 42C34.0424 41.1 34.5674 39.975 34.9424 38.625C35.7674 36 36.3674 32.775 37.1174 30C37.7924 27.6 38.9924 25.725 40.1174 23.7C41.2424 21.75 42.2174 19.65 42.2174 16.95C42.5174 13.35 41.2424 10.2 38.9174 7.95ZM38.9924 22.95C37.9424 24.9 36.5924 26.85 35.8424 29.55C35.0174 32.475 34.4924 35.7 33.6674 38.175C33.2924 39.375 32.8424 40.425 32.3174 41.1C31.7924 41.775 31.3424 42 30.6674 42C29.8424 42 29.3174 41.775 28.9424 41.325C28.5674 40.875 28.2674 40.125 28.2674 38.925C28.2674 35.325 27.5174 30.675 26.8424 26.85C26.6174 25.575 25.4924 24.825 24.4424 24.825C23.3924 24.825 22.2674 25.575 21.9674 26.85C21.2924 30.75 20.5424 35.325 20.5424 38.925C20.5424 40.05 20.2424 40.8 19.8674 41.325C19.4924 41.775 18.9674 42 18.1424 42C17.4674 42 17.0174 41.7 16.4924 41.1C15.9674 40.5 15.5174 39.45 15.1424 38.25C14.3174 35.85 13.7924 32.55 12.9674 29.625C12.2174 26.925 10.8674 24.9 9.81738 23.025C8.76738 21.15 7.86738 19.35 7.86738 17.025C7.86738 13.725 8.99238 11.025 11.0174 9.075C13.0424 7.2 15.8924 6.075 19.6424 6C22.7174 6.225 25.4174 7.65 27.3674 9.825C27.6674 10.125 28.1174 10.2 28.4174 9.9C28.7174 9.6 28.7924 9.15 28.4924 8.85C27.6674 7.875 26.6924 7.05 25.6424 6.45C26.6924 6.15 27.8924 6 29.1674 6C32.9174 6 35.8424 7.125 37.8674 9.075C39.8924 10.95 40.9424 13.65 40.9424 17.025C40.9424 19.275 40.1174 21.075 38.9924 22.95Z" fill="#EF8054"/>
<path d="M34.2676 9.375C33.8176 9.375 33.5176 9.675 33.5176 10.125C33.5176 10.425 33.6676 10.65 33.8926 10.8C34.4926 11.1 34.9426 11.475 35.3926 11.925C36.5926 13.125 37.1926 14.85 37.1926 17.025C37.1926 18.45 36.6676 19.575 35.6176 21.45C35.3926 21.825 35.5426 22.275 35.8426 22.5C36.1426 22.725 36.6676 22.575 36.8926 22.275C38.0176 20.25 38.6926 18.75 38.6926 16.95C38.6926 14.475 37.9426 12.3 36.4426 10.8C35.9176 10.275 35.3176 9.825 34.6426 9.45C34.5676 9.375 34.4176 9.375 34.2676 9.375Z" fill="#00779C"/>
<path d="M16.1924 17.25C17.435 17.25 18.4424 16.2426 18.4424 15C18.4424 13.7574 17.435 12.75 16.1924 12.75C14.9497 12.75 13.9424 13.7574 13.9424 15C13.9424 16.2426 14.9497 17.25 16.1924 17.25Z" fill="#00779C"/>
<path d="M34.7173 23.625C34.4173 23.625 34.1923 23.775 34.1173 24.075C33.6673 25.05 33.3673 25.8 32.9173 26.7C32.7673 27.075 32.9173 27.525 33.2923 27.675C33.6673 27.825 34.1173 27.675 34.2673 27.3C34.7173 26.325 34.9423 25.575 35.3923 24.675C35.6173 24.3 35.4673 23.85 35.0923 23.7C35.0173 23.625 34.8673 23.625 34.7173 23.625Z" fill="#00779C"/>
</svg>
