<svg width="64" height="64" viewBox="0 0 64 64" fill="none" xmlns="http://www.w3.org/2000/svg">
<path d="M32 1.28003C20.085 1.28003 10.26 10.355 9.08 21.96C7.91 22.34 6.98 23.27 6.6 24.44C4.775 24.805 3.19 26.055 2.08 27.72C0.755 29.705 0 32.32 0 35.2C0 38.08 0.755 40.695 2.08 42.68C3.19 44.345 4.775 45.595 6.6 45.96C7.1 47.5 8.54 48.64 10.24 48.64C12.345 48.64 14.08 46.905 14.08 44.8V25.6C14.08 24.01 13.075 22.66 11.68 22.08C12.8 11.82 21.44 3.84003 32 3.84003C42.56 3.84003 51.2 11.82 52.32 22.08C50.925 22.66 49.92 24.01 49.92 25.6V44.8C49.92 46.435 50.985 47.81 52.44 48.36C52.265 50.805 51.435 52.645 50.12 53.96C48.635 55.445 46.465 56.32 43.52 56.32H39.44C38.905 54.84 37.495 53.76 35.84 53.76H29.44C27.335 53.76 25.6 55.495 25.6 57.6C25.6 59.705 27.335 61.44 29.44 61.44H35.84C37.495 61.44 38.905 60.36 39.44 58.88H43.52C46.975 58.88 49.925 57.835 51.96 55.8C53.79 53.97 54.81 51.41 55 48.4C56.13 48.005 57.03 47.1 57.4 45.96C59.225 45.595 60.81 44.345 61.92 42.68C63.245 40.695 64 38.08 64 35.2C64 32.32 63.245 29.705 61.92 27.72C60.81 26.055 59.225 24.805 57.4 24.44C57.02 23.27 56.09 22.34 54.92 21.96C53.74 10.355 43.915 1.28003 32 1.28003ZM10.24 24.32C10.96 24.32 11.52 24.88 11.52 25.6V44.8C11.52 45.52 10.96 46.08 10.24 46.08C9.52 46.08 8.96 45.52 8.96 44.8V25.6C8.96 24.88 9.52 24.32 10.24 24.32ZM53.76 24.32C54.48 24.32 55.04 24.88 55.04 25.6V44.8C55.04 45.52 54.48 46.08 53.76 46.08C53.04 46.08 52.48 45.52 52.48 44.8V25.6C52.48 24.88 53.04 24.32 53.76 24.32ZM6.4 27.16V43.24C5.605 42.9 4.85 42.255 4.2 41.28C3.21 39.795 2.56 37.62 2.56 35.2C2.56 32.78 3.21 30.605 4.2 29.12C4.85 28.145 5.605 27.5 6.4 27.16ZM57.6 27.16C58.395 27.5 59.15 28.145 59.8 29.12C60.79 30.605 61.44 32.78 61.44 35.2C61.44 37.62 60.79 39.795 59.8 41.28C59.15 42.255 58.395 42.9 57.6 43.24V27.16ZM29.44 56.32H35.84C36.56 56.32 37.12 56.88 37.12 57.6C37.12 58.32 36.56 58.88 35.84 58.88H29.44C28.72 58.88 28.16 58.32 28.16 57.6C28.16 56.88 28.72 56.32 29.44 56.32Z" fill="white"/>
</svg>
