<svg width="64" height="64" viewBox="0 0 64 64" fill="none" xmlns="http://www.w3.org/2000/svg">
<path d="M31.9996 2C26.4996 2 21.9996 6.5 21.9996 12C21.9996 15.3 23.5996 18.2 26.0996 20C23.5996 20.2 21.2996 21.2 19.5996 23L11.4996 31.4C10.5996 32.4 10.0996 33.6 10.0996 35C10.0996 36.3 10.6996 37.6 11.6996 38.5C12.6996 39.4 13.8996 39.8 15.0996 39.8C16.3996 39.8 17.7996 39.3 18.7996 38.2L21.1996 35.5V39V44C21.1996 44.3 21.2996 44.6 21.4996 44.8L21.5996 44.9L18.9996 47.5C17.6996 48.9 16.9996 50.7 16.9996 52.7C16.9996 54.7 17.8996 56.4 19.2996 57.8L22.5996 61.1C23.5996 62 24.7996 62.5 25.9996 62.5C27.2996 62.5 28.5996 62 29.5996 61C30.4996 60 30.9996 58.8 30.9996 57.4C30.9996 56.1 30.3996 54.8 29.3996 53.9L27.9996 52.4L29.2996 51H34.7996L36.0996 52.4L34.4996 54C33.4996 54.9 32.8996 56.2 32.8996 57.5C32.8996 58.8 33.2996 60.1 34.2996 61.1C35.2996 62.1 36.5996 62.6 37.8996 62.6C39.0996 62.6 40.3996 62.1 41.2996 61.2L44.8996 57.7C46.2996 56.4 47.0996 54.6 47.1996 52.6C47.2996 50.6 46.5996 48.8 45.1996 47.4L42.5996 44.7C42.7996 44.5 42.8996 44.2 42.8996 43.9V36.9V35.6L45.1996 38.3C46.0996 39.3 47.2996 39.8 48.6996 39.9C48.7996 39.9 48.7996 39.9 48.8996 39.9C50.1996 39.9 51.3996 39.4 52.2996 38.6C53.2996 37.7 53.7996 36.4 53.8996 35.1C53.8996 33.8 53.3996 32.5 52.4996 31.5L44.3996 23.1C42.6996 21.3 40.3996 20.3 37.9996 20.1C40.4996 18.3 42.0996 15.4 42.0996 12.1C41.9996 6.5 37.4996 2 31.9996 2ZM31.9996 4C36.3996 4 39.9996 7.6 39.9996 12C39.9996 16.4 36.3996 20 31.9996 20C27.5996 20 23.9996 16.4 23.9996 12C23.9996 7.6 27.5996 4 31.9996 4ZM31.8996 22H31.9996H37.1996C39.3996 22 41.4996 22.9 42.9996 24.4L51.0996 32.8C51.6996 33.4 51.9996 34.1 51.8996 34.9C51.8996 35.7 51.4996 36.4 50.9996 37C50.3996 37.5 49.6996 37.8 48.8996 37.8C48.0996 37.8 47.3996 37.4 46.8996 36.9L42.8996 32.2C42.5996 31.9 42.1996 31.8 41.7996 31.9C41.2996 32.2 40.9996 32.6 40.9996 33V36H37.9996C37.3996 36 36.9996 36.4 36.9996 37C36.9996 37.6 37.3996 38 37.9996 38H40.9996V43.5L34.5996 49H29.2996L22.9996 43.5V38H25.9996C26.5996 38 26.9996 37.6 26.9996 37C26.9996 36.4 26.5996 36 25.9996 36H22.9996V33C22.9996 32.6 22.6996 32.2 22.3996 32.1C21.9996 32 21.5996 32.1 21.2996 32.4L17.0996 37C15.9996 38.2 14.0996 38.3 12.8996 37.1C12.3996 36.6 11.9996 35.8 11.9996 35C11.9996 34.2 12.2996 33.4 12.7996 32.9L20.8996 24.5C22.3996 22.9 24.4996 22.1 26.6996 22.1L31.8996 22ZM41.0996 46.1L43.6996 48.9C44.6996 49.9 45.1996 51.3 45.0996 52.7C45.0996 54.1 44.4996 55.4 43.3996 56.4L39.9996 59.8C38.7996 60.9 36.8996 60.9 35.7996 59.7C35.1996 59.1 34.8996 58.4 34.9996 57.5C35.0996 56.6 35.3996 55.9 35.9996 55.4L38.2996 53.1C38.6996 52.7 38.6996 52.1 38.2996 51.7L36.5996 50L41.0996 46.1ZM22.9996 46.2L27.4996 50.1L25.8996 51.8C25.4996 52.2 25.4996 52.8 25.8996 53.2L27.9996 55.3C28.5996 55.8 28.8996 56.6 28.9996 57.4C28.9996 58.2 28.6996 59 28.1996 59.6C27.0996 60.8 25.1996 60.8 23.9996 59.7L20.6996 56.4C19.6996 55.4 19.0996 54.1 19.0996 52.7C19.0996 51.3 19.5996 50 20.4996 48.9L22.9996 46.2Z" fill="#FE6E35"/>
<path d="M30 36C29.4 36 29 36.4 29 37C29 37.6 29.4 38 30 38H34C34.6 38 35 37.6 35 37C35 36.4 34.6 36 34 36H30Z" fill="#00779C"/>
<path d="M27 40C26.4 40 26 40.4 26 41V43C26 43.6 26.4 44 27 44C27.6 44 28 43.6 28 43V41C28 40.4 27.6 40 27 40Z" fill="#00779C"/>
<path d="M32 40C31.4 40 31 40.4 31 41V43C31 43.6 31.4 44 32 44C32.6 44 33 43.6 33 43V41C33 40.4 32.6 40 32 40Z" fill="#00779C"/>
<path d="M37 40C36.4 40 36 40.4 36 41V43C36 43.6 36.4 44 37 44C37.6 44 38 43.6 38 43V41C38 40.4 37.6 40 37 40Z" fill="#00779C"/>
</svg>
