<svg width="24" height="24" viewBox="0 0 24 24" fill="none" xmlns="http://www.w3.org/2000/svg">
<g clip-path="url(#clip0_157_818)">
<path d="M23.6295 12.0001C23.6295 5.57817 18.4217 0.370361 11.9998 0.370361C5.57793 0.370361 0.370117 5.57817 0.370117 12.0001C0.370117 18.4219 5.57793 23.6297 11.9998 23.6297C18.4217 23.6297 23.6295 18.4219 23.6295 12.0001Z" fill="#76C718"/>
<path d="M18.4036 8.10484C18.1317 7.39703 17.5739 7.50953 16.9692 7.63141C16.6083 7.70641 15.0005 8.17516 12.4645 10.8564C11.4099 11.9673 10.7161 12.8533 10.2567 13.5283C9.97548 13.1861 9.65673 12.8158 9.31923 12.483C8.28329 11.447 7.12548 10.7345 7.07861 10.7064C6.59579 10.4111 5.96298 10.5611 5.66298 11.0486C5.36767 11.5314 5.51767 12.1642 6.00048 12.4642C6.00986 12.4689 7.00361 13.083 7.85673 13.9408C8.72861 14.8127 9.52079 15.9939 9.53017 16.008C9.72236 16.2986 10.0458 16.4673 10.388 16.4673C10.4442 16.4673 10.5052 16.4627 10.5661 16.4533C10.9692 16.383 11.288 16.083 11.3864 15.6892C11.3911 15.6798 11.7989 14.5502 13.9505 12.2814C15.6849 10.4486 16.8427 9.86734 17.2458 9.70797C17.2505 9.70797 17.2505 9.70797 17.2599 9.70797C17.2599 9.70797 17.2739 9.70328 17.2974 9.68922C17.3677 9.66109 17.4052 9.65172 17.4052 9.65172C17.3864 9.65641 17.377 9.65641 17.377 9.65641V9.65172C17.5645 9.57203 17.9114 9.42203 17.9161 9.41734C18.4364 9.19234 18.6099 8.62984 18.4036 8.10484Z" fill="white"/>
</g>
<defs>
<clipPath id="clip0_157_818">
<rect width="24" height="24" fill="white"/>
</clipPath>
</defs>
</svg>
