<svg width="64" height="64" viewBox="0 0 64 64" fill="none" xmlns="http://www.w3.org/2000/svg">
<path d="M18.4004 6C14.2004 6 10.0004 7.6 6.70039 10.8C3.60039 14 1.90039 18.1 1.90039 22.6C1.90039 27 3.60039 31.2 6.70039 34.3L26.5004 54C26.5004 54 26.5004 54.1 26.6004 54.1L28.0004 55.5C28.0004 55.5 28.1004 55.5 28.1004 55.6L29.9004 57.4C30.5004 58 31.2004 58.3 32.0004 58.3C32.8004 58.3 33.6004 58 34.1004 57.4L57.2004 34.3C60.3004 31.1 62.0004 27 62.0004 22.6C62.0004 18.2 60.3004 14 57.2004 10.9C50.7004 4.4 40.2004 4.4 33.8004 10.9L32.0004 12.7L30.2004 10.9C26.9004 7.6 22.7004 6 18.4004 6ZM18.4004 8C22.1004 8 25.9004 9.4 28.7004 12.3L30.5004 14.1L28.3004 16.3C27.9004 16.7 27.9004 17.3 28.3004 17.7C28.5004 17.9 28.7004 18 29.0004 18C29.3004 18 29.5004 17.9 29.7004 17.7L33.8004 13.6L35.2004 12.2C40.9004 6.5 50.1004 6.5 55.8004 12.2C58.5004 15 60.0004 18.7 60.0004 22.6C60.0004 26.5 58.5004 30.1 55.7004 32.9L32.7004 55.9C32.3004 56.3 31.7004 56.3 31.3004 55.9L8.10039 32.8C7.80039 32.5 7.60039 32.2 7.30039 32H16.0004C16.4004 32 16.7004 31.8 16.9004 31.4L17.9004 29.5L20.1004 35.4C20.3004 35.8 20.6004 36.1 21.1004 36C21.5004 36 21.9004 35.7 22.0004 35.3L24.7004 25.1L27.0004 42.1C27.1004 42.6 27.4004 42.9 27.9004 43C27.9004 43 27.9004 43 28.0004 43C28.4004 43 28.9004 42.7 29.0004 42.3L32.2004 30.3L34.1004 35.4C34.2004 35.8 34.6004 36 35.0004 36C35.4004 36 35.8004 35.8 35.9004 35.4L37.6004 32H48.3004C48.6004 32.6 49.3004 33 50.0004 33C51.1004 33 52.0004 32.1 52.0004 31C52.0004 29.9 51.1004 29 50.0004 29C49.3004 29 48.6004 29.4 48.3004 30H37.0004C36.6004 30 36.3004 30.2 36.1004 30.6L35.1004 32.5L32.9004 26.6C32.7004 26.2 32.4004 25.9 31.9004 26C31.5004 26 31.1004 26.3 31.0004 26.7L28.3004 36.9L26.0004 19.9C25.9004 19.4 25.6004 19.1 25.1004 19C24.6004 19 24.2004 19.3 24.1004 19.7L20.9004 31.7L19.0004 26.6C18.9004 26.2 18.5004 26 18.1004 26C17.7004 26 17.3004 26.2 17.2004 26.6L15.4004 30H6.00039C4.70039 27.8 3.90039 25.2 3.90039 22.5C3.90039 18.6 5.40039 15 8.20039 12.2C11.0004 9.4 14.7004 8 18.4004 8Z" fill="#FE6E35"/>
<path d="M44.9004 34.7C44.6004 34.7 44.4004 34.8 44.2004 35C43.8004 35.4 43.8004 36 44.2004 36.4L45.6004 37.7999C45.8004 37.9999 46.0004 38.0999 46.3004 38.0999C46.6004 38.0999 46.8004 37.9999 47.0004 37.7999C47.4004 37.3999 47.4004 36.8 47.0004 36.4L45.6004 35C45.4004 34.8 45.2004 34.7 44.9004 34.7Z" fill="#00779C"/>
<path d="M41.4004 38.2C41.1004 38.2 40.9004 38.3 40.7004 38.5C40.3004 38.9 40.3004 39.5 40.7004 39.9L42.1004 41.2999C42.3004 41.4999 42.5004 41.5999 42.8004 41.5999C43.1004 41.5999 43.3004 41.4999 43.5004 41.2999C43.9004 40.8999 43.9004 40.3 43.5004 39.9L42.1004 38.5C41.9004 38.3 41.6004 38.2 41.4004 38.2Z" fill="#00779C"/>
<path d="M37.7998 41.8C37.4998 41.8 37.2998 41.9 37.0998 42.1C36.6998 42.5 36.6998 43.1 37.0998 43.5L38.4998 44.9C38.6998 45.1 38.8998 45.2 39.1998 45.2C39.4998 45.2 39.6998 45.1 39.8998 44.9C40.2998 44.5 40.2998 43.9 39.8998 43.5L38.4998 42.1C38.2998 41.9 38.0998 41.8 37.7998 41.8Z" fill="#00779C"/>
<path d="M34.2998 45.3C33.9998 45.3 33.7998 45.4 33.5998 45.6C33.1998 46 33.1998 46.6 33.5998 47L34.9998 48.4C35.1998 48.6 35.3998 48.7 35.6998 48.7C35.9998 48.7 36.1998 48.6 36.3998 48.4C36.7998 48 36.7998 47.4 36.3998 47L34.9998 45.6C34.7998 45.4 34.4998 45.3 34.2998 45.3Z" fill="#00779C"/>
<path d="M30.7998 48.8C30.4998 48.8 30.2998 48.9 30.0998 49.1C29.6998 49.5 29.6998 50.1 30.0998 50.5L31.4998 51.9C31.6998 52.1 31.8998 52.2 32.1998 52.2C32.4998 52.2 32.6998 52.1 32.8998 51.9C33.2998 51.5 33.2998 50.9 32.8998 50.5L31.4998 49.1C31.2998 48.9 30.9998 48.8 30.7998 48.8Z" fill="#00779C"/>
</svg>
