<svg width="30" height="29" viewBox="0 0 30 29" fill="none" xmlns="http://www.w3.org/2000/svg">
<path d="M7.7877 6.08841C7.54898 6.08848 7.3157 6.15973 7.11769 6.29307C6.91968 6.4264 6.76593 6.61576 6.6761 6.83694C6.58627 7.05811 6.56445 7.30105 6.61341 7.53469C6.66238 7.76834 6.77991 7.98207 6.95098 8.14857L13.3025 14.5001L6.95098 20.8517C6.83581 20.9623 6.74386 21.0947 6.68052 21.2413C6.61718 21.3878 6.58372 21.5455 6.58209 21.7052C6.58047 21.8648 6.61072 22.0232 6.67106 22.171C6.73141 22.3188 6.82064 22.4531 6.93354 22.566C7.04643 22.6789 7.18072 22.7681 7.32853 22.8285C7.47634 22.8888 7.63471 22.9191 7.79436 22.9175C7.95401 22.9158 8.11173 22.8824 8.25828 22.819C8.40484 22.7557 8.53728 22.6637 8.64786 22.5486L14.9994 16.197L21.351 22.5486C21.4616 22.6637 21.594 22.7557 21.7406 22.819C21.8871 22.8824 22.0448 22.9158 22.2045 22.9175C22.3641 22.9191 22.5225 22.8888 22.6703 22.8285C22.8181 22.7681 22.9524 22.6789 23.0653 22.566C23.1782 22.4531 23.2674 22.3188 23.3278 22.171C23.3881 22.0232 23.4184 21.8648 23.4167 21.7052C23.4151 21.5455 23.3817 21.3878 23.3183 21.2413C23.255 21.0947 23.163 20.9623 23.0479 20.8517L16.6963 14.5001L23.0479 8.14857C23.2213 7.98001 23.3397 7.763 23.3876 7.52598C23.4356 7.28896 23.4108 7.04298 23.3166 6.82027C23.2223 6.59757 23.063 6.40854 22.8595 6.27794C22.6559 6.14735 22.4177 6.08128 22.176 6.08841C21.8642 6.0977 21.5683 6.228 21.351 6.45169L14.9994 12.8033L8.64786 6.45169C8.53603 6.33674 8.40229 6.24537 8.25456 6.18297C8.10682 6.12057 7.94807 6.08842 7.7877 6.08841Z" fill="#E88A37"/>
</svg>
