<svg width="24" height="24" viewBox="0 0 24 24" fill="none" xmlns="http://www.w3.org/2000/svg">
<g clip-path="url(#clip0_157_762)">
<path d="M2.43359 21.6515L3.78059 16.734C2.94959 15.295 2.51259 13.662 2.51309 11.9895C2.51559 6.757 6.77359 2.5 12.0066 2.5C14.5461 2.501 16.9291 3.4895 18.7216 5.283C20.5136 7.077 21.5006 9.461 21.4996 11.997C21.4976 17.2295 17.2386 21.487 12.0066 21.487H12.0026C10.4141 21.4865 8.85259 21.088 7.46609 20.3315L2.43359 21.6515Z" fill="white"/>
<path d="M2.43435 21.9015C2.36835 21.9015 2.30435 21.8755 2.25685 21.8275C2.19435 21.764 2.16985 21.6715 2.19335 21.586L3.51285 16.768C2.69485 15.315 2.26335 13.665 2.26435 11.99C2.26635 6.619 6.63685 2.25 12.0074 2.25C14.6124 2.251 17.0599 3.2655 18.8994 5.1065C20.7389 6.948 21.7514 9.395 21.7504 11.997C21.7484 17.3675 17.3774 21.737 12.0074 21.737C10.4129 21.7365 8.83535 21.343 7.43535 20.5985L2.49785 21.893C2.47685 21.899 2.45585 21.9015 2.43435 21.9015Z" fill="#5ACE0F"/>
<path d="M12.007 2.5C14.5465 2.501 16.9295 3.4895 18.722 5.283C20.514 7.077 21.501 9.461 21.5 11.997C21.498 17.2295 17.239 21.487 12.007 21.487H12.003C10.4145 21.4865 8.85304 21.088 7.46654 20.3315L2.43404 21.6515L3.78104 16.734C2.95004 15.295 2.51304 13.662 2.51354 11.9895C2.51604 6.757 6.77404 2.5 12.007 2.5ZM12.007 2C6.49904 2 2.01604 6.481 2.01354 11.9895C2.01304 13.673 2.43804 15.332 3.24404 16.8005L1.95154 21.52C1.90454 21.6925 1.95254 21.8765 2.07854 22.0035C2.17354 22.0995 2.30204 22.152 2.43404 22.152C2.47654 22.152 2.51904 22.1465 2.56104 22.1355L7.40454 20.8655C8.81854 21.5995 10.4035 21.987 12.003 21.9875C17.515 21.9875 21.998 17.506 22.0005 11.9975C22.0015 9.328 20.963 6.818 19.0765 4.93C17.189 3.0415 14.6785 2.001 12.007 2Z" fill="#5ACE0F"/>
<path d="M17.588 6.41603C16.098 4.92503 14.1175 4.10353 12.0095 4.10303C7.65747 4.10303 4.11797 7.64103 4.11597 11.99C4.11547 13.4805 4.53247 14.9315 5.32247 16.188L5.51047 16.4865L4.71297 19.397L7.69947 18.614L7.98797 18.785C9.19897 19.504 10.588 19.884 12.004 19.8845H12.007C16.356 19.8845 19.8955 16.346 19.897 11.9965C19.8975 9.88903 19.078 7.90703 17.588 6.41603Z" fill="#5ACE0F"/>
<path fill-rule="evenodd" clip-rule="evenodd" d="M9.63412 8.02244C9.45662 7.62744 9.26962 7.61944 9.10012 7.61244C8.96162 7.60644 8.80362 7.60694 8.64562 7.60694C8.48762 7.60694 8.23062 7.66644 8.01312 7.90394C7.79562 8.14144 7.18262 8.71494 7.18262 9.88194C7.18262 11.0489 8.03262 12.1769 8.15112 12.3349C8.26962 12.4929 9.79212 14.9644 12.2031 15.9154C14.2066 16.7054 14.6146 16.5484 15.0496 16.5089C15.4846 16.4694 16.4531 15.9354 16.6506 15.3814C16.8481 14.8274 16.8481 14.3529 16.7891 14.2539C16.7296 14.1549 16.5716 14.0959 16.3346 13.9769C16.0976 13.8579 14.9311 13.2844 14.7136 13.2054C14.4961 13.1264 14.3381 13.0869 14.1796 13.3244C14.0216 13.5614 13.5671 14.0959 13.4286 14.2539C13.2901 14.4124 13.1516 14.4324 12.9146 14.3134C12.6776 14.1944 11.9136 13.9444 11.0071 13.1364C10.3021 12.5079 9.82612 11.7314 9.68762 11.4939C9.54912 11.2569 9.67262 11.1284 9.79162 11.0099C9.89812 10.9034 10.0286 10.7329 10.1476 10.5944C10.2661 10.4559 10.3056 10.3569 10.3846 10.1989C10.4636 10.0404 10.4241 9.90194 10.3646 9.78344C10.3061 9.66444 9.84512 8.49144 9.63412 8.02244Z" fill="white"/>
</g>
<defs>
<clipPath id="clip0_157_762">
<rect width="24" height="24" fill="white"/>
</clipPath>
</defs>
</svg>
