<svg width="64" height="64" viewBox="0 0 64 64" fill="none" xmlns="http://www.w3.org/2000/svg">
<path d="M23.5 3C22.1 3 21 4.1 21 5.5C21 6.9 22.1 8 23.5 8C23.6 8 23.7 8 23.8 8C23.8 8.2 23.8 8.4 23.8 8.5C23.8 11.5 26.3 14 29.3 14C32.3 14 34.8 11.5 34.8 8.5C34.8 5.5 32.3 3 29.3 3C28 3 26.7 3.5 25.8 4.3C25.3 3.5 24.5 3 23.5 3ZM29.3 5C29.6 5 29.9 5 30.2 5.1C30.2 7 28.6 8.6 26.7 8.6C26.4 8.6 26.1 8.6 25.8 8.5C25.8 6.5 27.3 5 29.3 5ZM31.9 6.3C32.4 6.9 32.7 7.7 32.7 8.6C32.7 10.5 31.1 12.1 29.2 12.1C28 12.1 26.9 11.5 26.3 10.6C26.4 10.6 26.5 10.6 26.6 10.6C29.2 10.5 31.4 8.7 31.9 6.3ZM27.2 15.1C25 15.1 23.5 16.2 22.8 17.6C22.1 19 22 20.7 22 22.3C22 28.3 21 30.5 21 37.1C21 43.7 22 48 22 48C22.1 48.5 22.5 48.8 23 48.8H25.5L26 58.6C26.1 60.5 27.7 62 29.6 62C31.5 62 33.1 60.5 33.2 58.6L33.7 48.8H36C36.6 48.8 37 48.4 37 47.8C37 47.7 37 47.7 37 47.6C37 47.6 36.3 43.6 39.6 39.4C39.7 39.3 39.7 39.2 39.7 39.1C41.7 36.1 41.9 31.9 39.9 28.2C38.9 26.3 37.3 24.8 35.7 23.8C35.8 22.7 35.6 21.6 35 20.7C35.1 20.8 34.7 20.3 34.4 19.8C34 19.3 33.5 18.6 32.8 17.9C31.4 16.5 29.5 15.1 27.2 15.1ZM27.2 17.1C28.7 17.1 30.2 18.1 31.4 19.3C32 19.9 32.5 20.5 32.8 20.9C33.1 21.3 33.3 21.6 33.4 21.7C33.9 22.5 34 23.3 33.8 23.9C33.7 24.4 33.9 24.9 34.3 25.1C35.9 25.9 37.3 27.3 38.2 29C39.1 30.7 39.5 32.5 39.3 34.2C39.2 33.2 38.7 32.3 37.8 31.8L32.2 28.6L31.3 23.7C31.2 23.2 30.8 22.9 30.3 22.9H26.2C25.6 22.9 25.2 23.3 25.2 23.9C25.2 24 25.2 24 25.2 24.1L26.5 31C26.6 31.9 27.2 32.7 28 33.1L34.8 37C35.3 37.3 35.8 37.4 36.3 37.4C37.3 37.4 38.4 36.9 38.9 35.9C39 35.8 39 35.6 39.1 35.5C38.9 36.4 38.5 37.3 38 38.1C38 38.2 37.9 38.2 37.9 38.3C35 42.1 35 45.3 35.1 46.7H23.8C23.6 45.8 23 42.5 23 37C23 30.6 24 28.4 24 22.2C24 20.7 24.1 19.3 24.6 18.4C25.1 17.5 25.6 17.1 27.2 17.1ZM27.5 25H29.6L30.5 29.5C30.6 29.8 30.7 30 31 30.2L36.9 33.7C37.4 34 37.6 34.6 37.3 35.1C37.1 35.4 36.8 35.6 36.4 35.6C36.2 35.6 36.1 35.6 35.9 35.5L29.1 31.6C28.8 31.4 28.7 31.2 28.6 30.9L27.5 25ZM27.4 48.8H31.6L31.1 58.5C31.1 59.4 30.4 60 29.5 60C28.6 60 27.9 59.3 27.9 58.5L27.4 48.8Z" fill="#FE6E35"/>
<path d="M6 31C5.4 31 5 31.4 5 32V34C5 34.6 5.4 35 6 35C6.6 35 7 34.6 7 34V32C7 31.4 6.6 31 6 31Z" fill="#00779C"/>
<path d="M11 31C10.4 31 10 31.4 10 32V34C10 34.6 10.4 35 11 35C11.6 35 12 34.6 12 34V32C12 31.4 11.6 31 11 31Z" fill="#00779C"/>
<path d="M16 31C15.4 31 15 31.4 15 32V34C15 34.6 15.4 35 16 35C16.6 35 17 34.6 17 34V32C17 31.4 16.6 31 16 31Z" fill="#00779C"/>
<path d="M46 31C45.4 31 45 31.4 45 32V34C45 34.6 45.4 35 46 35C46.6 35 47 34.6 47 34V32C47 31.4 46.6 31 46 31Z" fill="#00779C"/>
<path d="M51 31C50.4 31 50 31.4 50 32V34C50 34.6 50.4 35 51 35C51.6 35 52 34.6 52 34V32C52 31.4 51.6 31 51 31Z" fill="#00779C"/>
<path d="M56 31C55.4 31 55 31.4 55 32V34C55 34.6 55.4 35 56 35C56.6 35 57 34.6 57 34V32C57 31.4 56.6 31 56 31Z" fill="#00779C"/>
</svg>
