<svg width="56" height="56" viewBox="0 0 56 56" fill="none" xmlns="http://www.w3.org/2000/svg">
<path d="M43.1375 0C42.4375 0 41.825 0.2625 41.3 0.7875C40.775 1.3125 40.5125 1.925 40.5125 2.625C40.5125 3.325 40.775 4.025 41.3 4.4625L43.1375 6.3L38.15 11.2875L33.8625 7C32.8125 5.95 31.15 5.95 30.1875 7C29.1375 8.05 29.1375 9.7125 30.1875 10.675L30.8 11.2875L10.7625 31.2375C9.45 32.55 9.1 34.3875 9.8 36.05L10.4125 37.3625C10.5875 37.7125 10.7625 38.0625 10.9375 38.4125L9.1 40.25C8.575 40.775 8.3125 41.3875 8.3125 42.0875C8.3125 42.7875 8.575 43.4875 9.1 43.925L9.7125 44.5375L1.1375 53.1125C0.7875 53.4625 0.7875 53.9875 1.1375 54.3375C1.3125 54.5125 1.4875 54.6 1.75 54.6C2.0125 54.6 2.1875 54.5125 2.3625 54.3375L10.9375 45.7625L11.55 46.375C12.075 46.9 12.6875 47.1625 13.3875 47.1625C14.0875 47.1625 14.7875 46.9 15.225 46.375L17.0625 44.5375C17.4125 44.7125 17.7625 44.8875 18.1125 45.0625L19.425 45.675C19.95 45.9375 20.5625 46.025 21.175 46.025C22.3125 46.025 23.45 45.5875 24.2375 44.7125L44.1875 24.7625L44.8 25.375C45.325 25.9 46.025 26.1625 46.6375 26.1625C47.3375 26.1625 47.95 25.9 48.475 25.375C49.525 24.325 49.525 22.6625 48.475 21.7L44.1875 17.325L49.175 12.3375L51.0125 14.175C51.5375 14.7 52.15 14.9625 52.85 14.9625C53.55 14.9625 54.25 14.7 54.6875 14.175C55.7375 13.125 55.7375 11.4625 54.6875 10.5L44.975 0.7875C44.45 0.2625 43.75 0 43.1375 0ZM43.1375 1.75C43.4 1.75 43.575 1.8375 43.75 2.0125L53.6375 11.9C53.9875 12.25 53.9875 12.775 53.6375 13.125C53.2875 13.475 52.7625 13.475 52.4125 13.125L50.575 11.2875L48.825 9.5375L42.525 3.2375C42.35 3.0625 42.2625 2.8875 42.2625 2.625C42.2625 2.3625 42.35 2.1875 42.525 2.0125C42.6125 1.8375 42.875 1.75 43.1375 1.75ZM44.3625 7.6125L46.2 9.45L48.0375 11.2875L43.05 16.275L39.375 12.5125L44.3625 7.6125ZM31.9375 7.9625C32.2 7.9625 32.375 8.05 32.55 8.225L36.8375 12.5125L43.05 18.725L47.3375 23.0125C47.6875 23.3625 47.6875 23.8875 47.3375 24.2375C46.9875 24.5875 46.4625 24.5875 46.1125 24.2375L31.2375 9.3625C30.8875 9.0125 30.8875 8.4875 31.2375 8.1375C31.5 8.05 31.7625 7.9625 31.9375 7.9625ZM31.9375 12.5125L43.1375 23.625L23.1 43.6625C22.3125 44.45 21.175 44.625 20.2125 44.1875L18.9 43.575C15.75 42.2625 13.3 39.8125 11.9875 36.6625L11.375 35.35C10.9375 34.3875 11.2 33.25 11.9 32.4625L31.9375 12.5125ZM11.9 40.075C12.95 41.5625 14.175 42.7875 15.575 43.75L14 45.325C13.65 45.675 13.125 45.675 12.775 45.325L10.325 42.875C10.15 42.7 10.0625 42.525 10.0625 42.2625C10.0625 42 10.15 41.825 10.325 41.65L11.9 40.075Z" fill="#00779C"/>
<path d="M31.9375 15.3999C31.675 15.3999 31.5 15.4874 31.325 15.6624C30.975 16.0124 30.975 16.5374 31.325 16.8874L32.55 18.1124C32.725 18.2874 32.9 18.3749 33.1625 18.3749C33.425 18.3749 33.6 18.2874 33.775 18.1124C34.125 17.7624 34.125 17.2374 33.775 16.8874L32.55 15.6624C32.375 15.4874 32.2 15.3999 31.9375 15.3999Z" fill="#FE6E35"/>
<path d="M28.875 18.4624C28.6125 18.4624 28.4375 18.5499 28.2625 18.7249C27.9125 19.0749 27.9125 19.5999 28.2625 19.9499L31.9375 23.6249C32.1125 23.7999 32.2875 23.8874 32.55 23.8874C32.8125 23.8874 32.9875 23.7999 33.1625 23.6249C33.5125 23.2749 33.5125 22.7499 33.1625 22.3999L29.4875 18.7249C29.3125 18.5499 29.05 18.4624 28.875 18.4624Z" fill="#FE6E35"/>
<path d="M25.8125 21.5249C25.55 21.5249 25.375 21.6124 25.2 21.7874C24.85 22.1374 24.85 22.6624 25.2 23.0124L26.425 24.2374C26.6 24.4124 26.8625 24.4999 27.0375 24.4999C27.3 24.4999 27.475 24.4124 27.65 24.2374C28 23.8874 28 23.3624 27.65 23.0124L26.425 21.7874C26.25 21.6124 25.9875 21.5249 25.8125 21.5249Z" fill="#FE6E35"/>
<path d="M22.6626 24.675C22.4001 24.675 22.2251 24.7625 22.0501 24.9375C21.7001 25.2875 21.7001 25.8125 22.0501 26.1625L25.7251 29.8375C25.9001 30.0125 26.1626 30.1 26.3376 30.1C26.6001 30.1 26.7751 30.0125 26.9501 29.8375C27.3001 29.4875 27.3001 28.9625 26.9501 28.6125L23.2751 24.9375C23.1001 24.7625 22.9251 24.675 22.6626 24.675Z" fill="#FE6E35"/>
<path d="M19.6001 27.7375C19.3376 27.7375 19.1626 27.825 18.9876 28C18.6376 28.35 18.6376 28.875 18.9876 29.225L20.2126 30.45C20.3876 30.625 20.5626 30.7125 20.8251 30.7125C21.0876 30.7125 21.2626 30.625 21.4376 30.45C21.7876 30.1 21.7876 29.575 21.4376 29.225L20.2126 28C20.0376 27.825 19.7751 27.7375 19.6001 27.7375Z" fill="#FE6E35"/>
<path d="M16.45 30.8C16.1875 30.8 16.0125 30.8875 15.8375 31.0625C15.4875 31.4125 15.4875 31.9375 15.8375 32.2875L19.5125 35.9625C19.6875 36.1375 19.8625 36.225 20.125 36.225C20.3875 36.225 20.5625 36.1375 20.7375 35.9625C21.0875 35.6125 21.0875 35.0875 20.7375 34.7375L17.0625 31.0625C16.975 30.8875 16.7125 30.8 16.45 30.8Z" fill="#FE6E35"/>
<path d="M13.3875 33.95C13.125 33.95 12.95 34.0375 12.775 34.2125C12.425 34.5625 12.425 35.0875 12.775 35.4375L14 36.6625C14.175 36.8375 14.4375 36.925 14.6125 36.925C14.875 36.925 15.05 36.8375 15.225 36.6625C15.575 36.3125 15.575 35.7875 15.225 35.4375L14 34.2125C13.825 34.0375 13.65 33.95 13.3875 33.95Z" fill="#FE6E35"/>
</svg>
