<svg width="64" height="64" viewBox="0 0 64 64" fill="none" xmlns="http://www.w3.org/2000/svg">
<path d="M9 3C7.3 3 6 4.3 6 6V20.2C4.8 20.6 4 21.7 4 23C4 29.2 7.2 34.7 12 38C12 42.3 14.7 46 18.6 47.4C20.6 55.9 28.3 62 37 62C47.5 62 56 53.5 56 43V18.4C58.9 17.2 61 14.3 61 11C61 6.6 57.4 3 53 3C48.6 3 45 6.6 45 11C45 14.4 47.1 17.2 50 18.4V43C50 50.2 44.2 56 37 56C31.6 56 26.7 52.6 24.8 47.6C28.9 46.4 32 42.6 32 38C36.8 34.8 40 29.3 40 23C40 21.7 39.2 20.6 38 20.2V6C38 4.3 36.7 3 35 3H32C30.3 3 29 4.3 29 6C29 7.7 30.3 9 32 9H35C35.4 9 35.7 8.9 36 8.8V20.2C34.8 20.6 34 21.7 34 23C34 29.6 28.6 35 22 35C15.4 35 10 29.6 10 23C10 21.7 9.2 20.6 8 20.2V8.8C8.3 8.9 8.6 9 9 9H12C13.7 9 15 7.7 15 6C15 4.3 13.7 3 12 3H9ZM9 5H12C12.6 5 13 5.4 13 6C13 6.6 12.6 7 12 7H9C8.4 7 8 6.6 8 6C8 5.4 8.4 5 9 5ZM32 5H35C35.6 5 36 5.4 36 6C36 6.6 35.6 7 35 7H32C31.4 7 31 6.6 31 6C31 5.4 31.4 5 32 5ZM53 5C56.3 5 59 7.7 59 11C59 14.3 56.3 17 53 17C49.7 17 47 14.3 47 11C47 7.7 49.7 5 53 5ZM52 19H54V43C54 52.4 46.4 60 37 60C29.6 60 22.9 55 20.8 48C21.1 48 21.3 48 21.6 48C21.7 48 21.9 48 22 48C22.3 48 22.6 48 22.9 48C25 54 30.7 58 37 58C45.3 58 52 51.3 52 43V19ZM7 22C7.6 22 8 22.4 8 23C8 30.7 14.3 37 22 37C29.7 37 36 30.7 36 23C36 22.4 36.4 22 37 22C37.6 22 38 22.4 38 23C38 28.3 35.4 32.9 31.5 35.8C31.2 36 31 36.2 30.7 36.4C30.6 36.4 30.6 36.5 30.5 36.5C29.9 36.9 29.3 37.2 28.7 37.5C28.6 37.5 28.5 37.6 28.4 37.6C28.2 37.7 27.9 37.8 27.7 37.9C27.5 38 27.3 38.1 27.1 38.1C26.9 38.2 26.7 38.2 26.4 38.3C26.1 38.4 25.9 38.4 25.6 38.5C25.4 38.5 25.2 38.6 25 38.6C24.7 38.7 24.4 38.7 24.1 38.7C23.9 38.7 23.8 38.7 23.6 38.8C23 39 22.5 39 22 39C21.5 39 21 39 20.5 38.9C20.3 38.9 20.2 38.9 20 38.8C19.7 38.8 19.4 38.7 19.1 38.7C18.9 38.7 18.7 38.6 18.5 38.6C18.2 38.5 18 38.5 17.7 38.4C17.5 38.3 17.3 38.3 17 38.2C16.8 38.1 16.6 38 16.4 38C16.2 37.9 15.9 37.8 15.7 37.7C15.6 37.7 15.5 37.6 15.4 37.6C14.8 37.3 14.2 37 13.6 36.6C13.5 36.6 13.5 36.5 13.4 36.5C13.1 36.3 12.8 36.1 12.6 35.9C8.6 32.9 6 28.3 6 23C6 22.4 6.4 22 7 22ZM14.1 39.2C14.3 39.3 14.6 39.4 14.8 39.5C14.9 39.5 15 39.6 15.1 39.6C15.5 39.8 16 39.9 16.4 40.1C16.5 40.1 16.6 40.2 16.7 40.2C17.2 40.4 17.7 40.5 18.2 40.6C18.3 40.6 18.4 40.6 18.4 40.6C18.9 40.7 19.5 40.8 20 40.8C20.1 40.8 20.1 40.8 20.2 40.8C20.8 41 21.4 41 22 41C22.6 41 23.2 41 23.7 40.9C23.8 40.9 23.8 40.9 23.9 40.9C24.4 40.8 25 40.8 25.5 40.7C25.6 40.7 25.7 40.7 25.7 40.7C26.2 40.6 26.7 40.5 27.2 40.3C27.3 40.3 27.4 40.2 27.5 40.2C28 40.1 28.4 39.9 28.8 39.7C28.9 39.7 29 39.6 29.1 39.6C29.3 39.5 29.6 39.4 29.8 39.3C29.4 43 26 46 22 46C18 46 14.6 43 14.1 39.2Z" fill="#FE6E35"/>
<path d="M53 7C50.8 7 49 8.8 49 11C49 13.2 50.8 15 53 15C55.2 15 57 13.2 57 11C57 8.8 55.2 7 53 7ZM53 13C51.9 13 51 12.1 51 11C51 9.9 51.9 9 53 9C54.1 9 55 9.9 55 11C55 12.1 54.1 13 53 13Z" fill="#00779C"/>
<path d="M44.2999 45.2C43.8999 45.2 43.4999 45.3999 43.3999 45.7999C43.1999 46.2999 43.3999 46.8999 43.8999 47.0999L45.6999 47.9C45.8999 48 45.9999 48 46.1999 48C46.5999 48 46.9999 47.8 47.0999 47.4C47.2999 46.9 47.0999 46.2999 46.5999 46.0999L44.7999 45.2999C44.5999 45.1999 44.4999 45.2 44.2999 45.2Z" fill="#00779C"/>
<path d="M30.9 47C30.6 47 30.4 47 30.2 47.2L28.6 48.5C28.2 48.8 28.1 49.5 28.5 49.9C28.7 50.1 29 50.3 29.3 50.3C29.5 50.3 29.7 50.2 29.9 50.1L31.5 48.8C31.9 48.5 32 47.8 31.6 47.4C31.4 47.2 31.2 47.1 30.9 47Z" fill="#00779C"/>
<path d="M42 48.4C41.7 48.4 41.5 48.4 41.3 48.6C40.9 48.9 40.8 49.6 41.1 50L42.3 51.6C42.5 51.9 42.8 52 43.1 52C43.3 52 43.5 51.9 43.7 51.8C44.1 51.5 44.2 50.8 43.9 50.4L42.7 48.8C42.5 48.5 42.2 48.4 42 48.4Z" fill="#00779C"/>
<path d="M33.9999 49.4C33.5999 49.4 33.1999 49.6 33.0999 50L32.4 51.9C32.2 52.4 32.3999 53 32.9999 53.2C33.0999 53.2 33.2 53.3 33.4 53.3C33.8 53.3 34.1999 53.1 34.2999 52.7L34.9999 50.8C35.1999 50.3 35 49.7 34.4 49.5C34.3 49.5 34.1999 49.4 33.9999 49.4Z" fill="#00779C"/>
<path d="M37.9996 49.8999C37.4996 49.9999 37.0996 50.4999 37.0996 50.9999L37.3996 52.9999C37.4996 53.4999 37.8996 53.8999 38.3996 53.8999H38.4996C38.9996 53.7999 39.3996 53.2999 39.3996 52.7999L39.0996 50.7999C38.9996 50.1999 38.4996 49.8999 37.9996 49.8999Z" fill="#00779C"/>
</svg>
