<svg width="64" height="64" viewBox="0 0 64 64" fill="none" xmlns="http://www.w3.org/2000/svg">
<path d="M51.3 10.6C48.2 7.7 43.7 6 38.3 6C35.9 6 33.9 6.3 32 6.9C30.2 6.3 28.1 6 25.8 6H25.7C25.6 6 25.6 6 25.5 6C20.3 6.1 15.9 7.7 12.9 10.6C9.7 13.6 8 17.8 8 22.6C8 26.2 9.3 29 10.8 31.6C12.3 34.2 13.9 36.7 14.8 40C15.8 43.8 16.6 48.1 17.7 51.6C18.3 53.3 18.9 54.9 19.8 56C20.7 57.1 22 58 23.6 58C25.1 58 26.5 57.4 27.4 56.3C28.3 55.2 28.7 53.7 28.7 51.9C28.7 47.4 29.6 41.3 30.6 36.2C30.8 35.4 31.3 35.1 31.9 35.1C32.5 35.1 33 35.3 33.1 36.1C34 41.2 35 47.3 35 51.9C35 53.7 35.4 55.2 36.3 56.3C37.2 57.4 38.6 58 40.1 58C41.7 58 43 57.2 43.9 56C44.8 54.8 45.5 53.3 46 51.5C47.1 48 47.9 43.7 48.9 40C49.8 36.8 51.4 34.3 52.9 31.6C54.4 29 55.7 26.2 55.7 22.6C56.1 17.8 54.4 13.6 51.3 10.6ZM51.4 30.6C50 33.2 48.2 35.8 47.2 39.4C46.1 43.3 45.4 47.6 44.3 50.9C43.8 52.5 43.2 53.9 42.5 54.8C41.8 55.7 41.2 56 40.3 56C39.2 56 38.5 55.7 38 55.1C37.5 54.5 37.1 53.5 37.1 51.9C37.1 47.1 36.1 40.9 35.2 35.8C34.9 34.1 33.4 33.1 32 33.1C30.6 33.1 29.1 34.1 28.7 35.8C27.8 41 26.8 47.1 26.8 51.9C26.8 53.4 26.4 54.4 25.9 55.1C25.4 55.7 24.7 56 23.6 56C22.7 56 22.1 55.6 21.4 54.8C20.7 54 20.1 52.6 19.6 51C18.5 47.8 17.8 43.4 16.7 39.5C15.7 35.9 13.9 33.2 12.5 30.7C11.1 28.2 9.9 25.8 9.9 22.7C9.9 18.3 11.4 14.7 14.1 12.1C16.8 9.6 20.6 8.1 25.6 8C29.7 8.3 33.3 10.2 35.9 13.1C36.3 13.5 36.9 13.6 37.3 13.2C37.7 12.8 37.8 12.2 37.4 11.8C36.3 10.5 35 9.4 33.6 8.6C35 8.2 36.6 8 38.3 8C43.3 8 47.2 9.5 49.9 12.1C52.6 14.6 54 18.2 54 22.7C54 25.7 52.9 28.1 51.4 30.6Z" fill="#EF8054"/>
<path d="M45.0996 12.5C44.4996 12.5 44.0996 12.9 44.0996 13.5C44.0996 13.9 44.2996 14.2 44.5996 14.4C45.3996 14.8 45.9996 15.3 46.5996 15.9C48.1996 17.5 48.9996 19.8 48.9996 22.7C48.9996 24.6 48.2996 26.1 46.8996 28.6C46.5996 29.1 46.7996 29.7 47.1996 30C47.5996 30.3 48.2996 30.1 48.5996 29.7C50.0996 27 50.9996 25 50.9996 22.6C50.9996 19.3 49.9996 16.4 47.9996 14.4C47.2996 13.7 46.4996 13.1 45.5996 12.6C45.4996 12.5 45.2996 12.5 45.0996 12.5Z" fill="#00779C"/>
<path d="M21 23C22.6569 23 24 21.6569 24 20C24 18.3431 22.6569 17 21 17C19.3431 17 18 18.3431 18 20C18 21.6569 19.3431 23 21 23Z" fill="#00779C"/>
<path d="M45.7003 31.5C45.3003 31.5 45.0003 31.7 44.9003 32.1C44.3003 33.4 43.9003 34.4 43.3003 35.6C43.1003 36.1 43.3003 36.7 43.8003 36.9C44.3003 37.1 44.9003 36.9 45.1003 36.4C45.7003 35.1 46.0003 34.1 46.6003 32.9C46.9003 32.4 46.7003 31.8 46.2003 31.6C46.1003 31.5 45.9003 31.5 45.7003 31.5Z" fill="#00779C"/>
</svg>
