<svg width="48" height="48" viewBox="0 0 48 48" fill="none" xmlns="http://www.w3.org/2000/svg">
<path d="M24 42C34.4934 42 43 33.4934 43 23C43 12.5066 34.4934 4 24 4C13.5066 4 5 12.5066 5 23C5 33.4934 13.5066 42 24 42Z" fill="url(#paint0_radial_157_860)"/>
<path d="M29 38H19C19 38.7 19 40 19 40C19 42.8 21.2 45 24 45C26.8 45 29 42.8 29 40C29 40 29 38.7 29 38Z" fill="url(#paint1_radial_157_860)"/>
<path d="M34 23C34 17.5 29.5 13 24 13C18.5 13 14 17.5 14 23C14 28 19 32 19 37V38H29V37C29 32 34 28 34 23Z" fill="#FEFEFE"/>
<defs>
<radialGradient id="paint0_radial_157_860" cx="0" cy="0" r="1" gradientUnits="userSpaceOnUse" gradientTransform="translate(24 23) scale(19)">
<stop offset="0.078" stop-color="white"/>
<stop offset="0.202" stop-color="#FFF5A3"/>
<stop offset="0.216" stop-color="#FFF392"/>
<stop offset="0.263" stop-color="#FFEE5F"/>
<stop offset="0.307" stop-color="#FFEA37"/>
<stop offset="0.347" stop-color="#FFE71A"/>
<stop offset="0.382" stop-color="#FFE508"/>
<stop offset="0.408" stop-color="#FFE402"/>
<stop offset="0.545" stop-color="#FDDE02"/>
<stop offset="0.736" stop-color="#F9CC01"/>
<stop offset="0.956" stop-color="#F2AF00"/>
<stop offset="1" stop-color="#F0A800"/>
</radialGradient>
<radialGradient id="paint1_radial_157_860" cx="0" cy="0" r="1" gradientUnits="userSpaceOnUse" gradientTransform="translate(21.677 37.463) scale(10.066)">
<stop stop-color="#6E757B"/>
<stop offset="1" stop-color="#4A4E52"/>
</radialGradient>
</defs>
</svg>
