<svg width="64" height="64" viewBox="0 0 64 64" fill="none" xmlns="http://www.w3.org/2000/svg">
<path d="M28 3C27.4 3 27 3.4 27 4V18.9C27 19 27 19 27 19.1C27 19.1 27 19.1 27 19.2C27 19.2 27 19.2 27 19.3C27 19.4 27 19.4 27 19.5L28.4 24C28.4 27.3 27.7 29.8 26.8 31.7C26.6 29.1 26.4 25.9 26.3 25.1C26.2 22.2 25.3 19.9 24 18.5C23.3 17.8 22.5 17.3 21.5 17.2C20.5 17.1 19.6 17.3 18.6 17.9C17.5 18.6 16 20.1 14.2 22.3C12.4 24.5 10.3 27.3 8.4 30.5C4.6 36.6 1 44.2 1 50.6C1 52.5 1 54.1 1.1 55.4C1.2 56.7 1.4 57.9 2.1 58.9C2.8 59.9 3.9 60.4 5.4 60.7C6.9 61 8.6 61 11 60.8L14.2 60.6C21.3 60.1 27 53.8 27 46.4C27 46.4 27 41.8 27 38.4C28.8 37.6 30.6 36.5 32 34.8C33.4 36.5 35.2 37.6 37 38.4C37 41.9 37 46.4 37 46.4C37 53.7 42.7 60.1 49.8 60.6L53 60.8C55.4 61 57.2 61 58.7 60.7C60.2 60.4 61.3 59.9 62 58.9C62.7 57.9 62.9 56.8 63 55.4C63.1 54.1 63.1 52.5 63.1 50.6C63.1 44.1 59.5 36.6 55.6 30.3C53.6 27.2 51.6 24.3 49.8 22.1C48 19.9 46.5 18.4 45.4 17.7C44.5 17.1 43.5 16.9 42.5 17C41.5 17.1 40.7 17.6 40 18.3C38.6 19.7 37.8 22 37.7 24.9C37.7 25.7 37.4 29.1 37.2 31.8C36.3 30 35.7 27.6 35.7 23.8L37 19.3C37 19.2 37 19.2 37.1 19.1C37.1 19.1 37.1 19.1 37.1 19C37.1 18.9 37.1 18.8 37.1 18.8V4C37.1 3.4 36.7 3 36.1 3H28ZM29 5H35V18.9L33.6 23.5C33.6 23.6 33.6 23.7 33.6 23.8C33.6 23.7 33.6 23.7 33.6 23.9C33.6 31.8 36.3 34.7 38.7 37C38.5 36.9 38.5 37 38.3 36.9C36.2 36 34 34.6 32.9 32.7C32.9 32.6 32.8 32.5 32.7 32.4C32.3 32 31.7 31.9 31.3 32.3C31.1 32.4 31 32.6 31 32.8C29.9 34.7 27.7 36 25.7 36.9C25.6 36.9 25.6 36.9 25.5 37C26 36.4 26.6 35.8 27.1 35.1C28.9 32.7 30.5 29.2 30.5 24C30.5 23.8 30.5 23.8 30.5 23.9C30.5 23.8 30.5 23.7 30.5 23.6L29 18.8V5ZM21 19C21.1 19 21.2 19 21.3 19C21.7 19.1 22.2 19.3 22.6 19.7C23.5 20.6 24.3 22.5 24.4 25C24.5 26.3 24.9 31.7 25 34C25 34.1 25 34.2 25.1 34.3C24 35.7 22.8 36.6 21.9 37.6L19.9 36.2L18.1 33L19.9 28.4C20.1 27.9 19.9 27.3 19.4 27.1C19.3 27 19.1 27 19 27C18.6 27 18.2 27.3 18.1 27.6L16.1 32.6C16 32.9 16 33.2 16.1 33.4L17.5 36.2L12.7 37C12.6 37 12.5 37 12.4 37.1L8.5 39.1C8 39.4 7.8 40 8.1 40.4C8.4 40.9 9 41.1 9.4 40.8L13.1 38.9L18.7 38L20.6 39.3L18.9 43H14C13.8 43 13.7 43 13.6 43.1L7.6 46.1C7.1 46.3 6.9 46.9 7.2 47.4C7.5 47.9 8 48.1 8.5 47.8L14.3 44.9H17.9L16.3 48L12.8 49C12.5 49.1 12.3 49.2 12.2 49.5L9.2 54.5C8.8 55 9 55.6 9.4 55.9C9.9 56.2 10.5 56.1 10.8 55.6C10.8 55.6 10.8 55.6 10.8 55.5L13.6 50.9L17.2 50C17.5 49.9 17.7 49.7 17.9 49.5L19.1 47L19.9 49L18.1 52.6C17.9 53.1 18.1 53.7 18.5 53.9C19 54.1 19.6 53.9 19.8 53.5L21.8 49.5C21.9 49.2 21.9 48.9 21.8 48.7L20.2 44.7L22.6 39.9C22.9 39.8 23.7 39.7 24.9 39.3C24.9 42.5 24.9 46.5 24.9 46.5C25 52.7 20 58.2 14 58.6L10.8 58.8C8.5 59 6.8 58.9 5.6 58.7C4.4 58.5 3.9 58.2 3.6 57.7C3.3 57.2 3 56.5 3 55.3C3 54.1 3 52.5 3 50.6C3 44.9 6.3 37.5 10.2 31.4C12.1 28.3 14.1 25.6 15.9 23.4C17.7 21.2 19.2 19.8 19.8 19.4C20.2 19.1 20.6 19 21 19ZM43 19C43.3 19 43.7 19.1 44.2 19.4C44.8 19.8 46.4 21.3 48.1 23.4C49.8 25.5 51.9 28.3 53.8 31.4C57.6 37.5 61 44.9 61 50.6C61 52.5 61 54.1 60.9 55.3C60.8 56.5 60.6 57.3 60.3 57.7C60 58.1 59.4 58.5 58.3 58.7C57.2 58.9 55.5 58.9 53.1 58.8L50 58.6C44 58.2 39 52.7 39 46.4C39 46.4 39 42.4 39 39.2C40.2 39.6 41.1 39.8 41.3 39.8L43.9 44.1L42.1 48.6C42 48.9 42 49.2 42.1 49.4L44 53C44.2 53.5 44.8 53.7 45.3 53.5C45.8 53.3 46 52.7 45.8 52.2C45.8 52.2 45.8 52.2 45.8 52.1L44.1 48.9L45.2 46.2L47.2 49.5C47.3 49.7 47.6 49.9 47.8 50L51.3 50.9L53.1 55.4C53.3 55.9 53.9 56.2 54.4 56C54.9 55.8 55.2 55.2 55 54.7V54.6L53 49.6C52.9 49.3 52.6 49.1 52.3 49L48.7 48.1L46.8 45H49.8L54.6 46.9C55.1 47.1 55.7 46.9 55.9 46.4C56.1 45.9 55.9 45.3 55.4 45.1H55.3L50.3 43.1C50.3 43 50.1 43 50 43H45.6L43.4 39.3L45.4 38.1C45.5 38 45.6 38 45.6 37.9H50.7L54.4 40.7C54.8 41 55.5 40.9 55.8 40.5C56.1 40.1 56 39.4 55.6 39.1L51.6 36.1C51.4 36.1 51.2 36 51 36H46.6L47.9 33.4C48 33.2 48 33 48 32.8L47 28.8C46.9 28.3 46.5 28 46 28C45.4 28 45 28.4 45 29C45 29.1 45 29.2 45 29.3L45.9 32.9L44.1 36.5C44.1 36.6 44 36.6 44 36.7L42.2 37.8C41.1 36.6 40 35.7 38.9 34.5C38.9 34.4 39 34.3 39 34.2C39.1 31.9 39.5 26.5 39.6 25.2C39.7 22.7 40.5 20.8 41.4 19.9C41.8 19.4 42.3 19.2 42.7 19.2C42.8 19 42.9 19 43 19Z" fill="#FE6E35"/>
<path d="M31 7C30.4 7 30 7.4 30 8C30 8.6 30.4 9 31 9H33C33.6 9 34 8.6 34 8C34 7.4 33.6 7 33 7H31Z" fill="#00779C"/>
<path d="M31 12C30.4 12 30 12.4 30 13C30 13.6 30.4 14 31 14H33C33.6 14 34 13.6 34 13C34 12.4 33.6 12 33 12H31Z" fill="#00779C"/>
<path d="M31 17C30.4 17 30 17.4 30 18C30 18.6 30.4 19 31 19H33C33.6 19 34 18.6 34 18C34 17.4 33.6 17 33 17H31Z" fill="#00779C"/>
</svg>
