<svg width="24" height="24" viewBox="0 0 24 24" fill="none" xmlns="http://www.w3.org/2000/svg">
<path d="M12 1.6001C7.13995 1.6001 3.19995 5.5401 3.19995 10.4001C3.19995 16.1873 8.92155 18.9577 9.63835 19.6025C10.3704 20.2609 10.9752 21.7369 11.2192 22.5737C11.3376 22.9801 11.6704 23.1857 12 23.1945C12.3304 23.1849 12.6624 22.9793 12.7808 22.5737C13.0248 21.7369 13.6296 20.2617 14.3616 19.6025C15.0784 18.9577 20.8 16.1873 20.8 10.4001C20.8 5.5401 16.86 1.6001 12 1.6001ZM12 12.8001C10.6744 12.8001 9.59995 11.7257 9.59995 10.4001C9.59995 9.0745 10.6744 8.0001 12 8.0001C13.3256 8.0001 14.4 9.0745 14.4 10.4001C14.4 11.7257 13.3256 12.8001 12 12.8001Z" fill="#E13C3C"/>
</svg>
