<svg width="28" height="35" viewBox="0 0 28 35" fill="none" xmlns="http://www.w3.org/2000/svg">
<path d="M3.33691 34H26.9083" stroke="#0152A8" stroke-width="2" stroke-linecap="round" stroke-linejoin="round"/>
<path d="M14.3364 18.2855C16.94 18.2855 19.0506 16.1748 19.0506 13.5712C19.0506 10.9676 16.94 8.85693 14.3364 8.85693C11.7327 8.85693 9.62207 10.9676 9.62207 13.5712C9.62207 16.1748 11.7327 18.2855 14.3364 18.2855Z" stroke="#0152A8" stroke-width="2" stroke-linecap="round" stroke-linejoin="round"/>
<path d="M26.9075 13.6923C26.9075 25.1154 14.3361 34 14.3361 34C14.3361 34 1.76465 25.1154 1.76465 13.6923C1.76465 10.3261 3.08913 7.09776 5.44673 4.71749C7.80433 2.33722 11.0019 1 14.3361 1C17.6702 1 20.8678 2.33722 23.2254 4.71749C25.583 7.09776 26.9075 10.3261 26.9075 13.6923V13.6923Z" stroke="#0152A8" stroke-width="2" stroke-linecap="round" stroke-linejoin="round"/>
</svg>
