<svg width="136" height="72" viewBox="0 0 136 72" fill="none" xmlns="http://www.w3.org/2000/svg">
<g clip-path="url(#clip0_157_444)">
<path d="M134.784 69.6813L134.983 68.701H135.822L135.612 69.6813H134.784ZM134.512 63.9553L133.301 69.6813H132.682L132.859 68.8204C132.545 69.1496 132.219 69.3955 131.89 69.5583C131.557 69.7211 131.206 69.8043 130.841 69.8043C130.342 69.8043 129.951 69.6741 129.665 69.4172C129.383 69.1604 129.242 68.8023 129.242 68.3466C129.242 68.2453 129.249 68.1368 129.26 68.0246C129.275 67.9125 129.293 67.7967 129.318 67.6774L130.114 63.9553H130.765L129.955 67.775C129.929 67.8872 129.911 67.9885 129.897 68.0825C129.882 68.1765 129.879 68.2597 129.879 68.3357C129.879 68.6251 129.973 68.8493 130.161 69.0085C130.349 69.164 130.62 69.2436 130.971 69.2436C131.568 69.2436 132.049 69.0483 132.422 68.6576C132.79 68.267 133.065 67.6629 133.243 66.8382L133.861 63.9589H134.512V63.9553ZM123.523 67.3844C123.523 66.3643 123.802 65.5107 124.362 64.8234C124.923 64.1325 125.621 63.7889 126.46 63.7889C127.202 63.7889 127.773 64.0059 128.175 64.4364C128.58 64.8668 128.783 65.4781 128.783 66.2703C128.783 67.3193 128.508 68.1766 127.962 68.8421C127.415 69.5077 126.71 69.8441 125.849 69.8441C125.115 69.8441 124.547 69.627 124.135 69.193C123.726 68.7589 123.52 68.1548 123.52 67.3844H123.523ZM126.424 64.3496C125.791 64.3496 125.267 64.6389 124.847 65.2177C124.428 65.7964 124.218 66.5163 124.218 67.3844C124.218 67.9885 124.362 68.4515 124.645 68.7806C124.93 69.1062 125.335 69.2726 125.86 69.2726C126.489 69.2726 127.017 68.9796 127.444 68.3936C127.871 67.8076 128.085 67.0914 128.085 66.2377C128.085 65.6156 127.943 65.1453 127.665 64.827C127.386 64.5087 126.97 64.3496 126.421 64.3496H126.424ZM118.445 71.9059L118.553 71.3343C118.64 71.3416 118.712 71.3488 118.774 71.3561C118.835 71.3633 118.89 71.3633 118.94 71.3633C119.118 71.3633 119.262 71.3199 119.382 71.2331C119.497 71.1463 119.617 70.9907 119.736 70.7664L120.337 69.609L119.179 63.9481H119.841L120.789 68.7987L123.248 63.9481H123.932L120.467 70.7809C120.214 71.2765 119.986 71.602 119.779 71.7576C119.577 71.9131 119.32 71.9927 119.02 71.9927C118.937 71.9927 118.85 71.9854 118.759 71.971C118.669 71.9565 118.564 71.9348 118.448 71.9059H118.445ZM110.599 67.3808C110.599 66.3607 110.878 65.5071 111.438 64.8198C111.999 64.1289 112.697 63.7853 113.536 63.7853C114.278 63.7853 114.849 64.0023 115.251 64.4328C115.656 64.8632 115.858 65.4745 115.858 66.2667C115.858 67.3157 115.584 68.1729 115.037 68.8385C114.491 69.5041 113.786 69.8405 112.925 69.8405C112.191 69.8405 111.623 69.6234 111.21 69.1894C110.802 68.7553 110.595 68.1512 110.595 67.3808H110.599ZM113.5 64.346C112.867 64.346 112.343 64.6353 111.923 65.2141C111.503 65.7928 111.294 66.5126 111.294 67.3808C111.294 67.9848 111.438 68.4478 111.72 68.777C112.006 69.1025 112.411 69.2689 112.936 69.2689C113.565 69.2689 114.093 68.9759 114.52 68.39C114.947 67.804 115.16 67.0878 115.16 66.2341C115.16 65.612 115.019 65.1417 114.741 64.8234C114.462 64.5051 114.046 64.346 113.496 64.346H113.5ZM109.966 69.6741C109.814 69.7211 109.691 69.75 109.594 69.7681C109.496 69.7862 109.402 69.7934 109.315 69.7934C108.975 69.7934 108.718 69.7247 108.548 69.5873C108.378 69.4498 108.291 69.2436 108.291 68.9687C108.291 68.8602 108.302 68.7336 108.32 68.5925C108.342 68.4515 108.371 68.2887 108.414 68.1078L109.174 64.4689H108.324L108.436 63.9517H109.304L109.648 62.3637H110.299L109.955 63.9517H111.015L110.903 64.4689H109.825L109.026 68.3285C109.004 68.4515 108.989 68.5491 108.979 68.6251C108.968 68.701 108.961 68.7589 108.961 68.7915C108.961 68.9542 108.997 69.0664 109.069 69.1279C109.141 69.1894 109.268 69.2219 109.456 69.2219C109.536 69.2219 109.63 69.2111 109.735 69.193C109.839 69.1713 109.955 69.1423 110.085 69.1062L109.962 69.6777L109.966 69.6741ZM102.33 69.6741L103.499 63.9481H104.11L103.954 64.6968C104.233 64.3785 104.482 64.1506 104.703 64.0096C104.924 63.8721 105.152 63.8034 105.387 63.8034C105.459 63.8034 105.535 63.8106 105.611 63.8287C105.687 63.8468 105.767 63.8685 105.85 63.8938L105.709 64.5304C105.611 64.5196 105.535 64.5123 105.474 64.5087C105.416 64.5051 105.365 64.5015 105.322 64.4979C104.884 64.4979 104.526 64.6787 104.255 65.0368C103.98 65.3986 103.763 65.9809 103.596 66.7875L103.014 69.6668H102.327L102.33 69.6741ZM101.147 67.9197H101.795C101.636 68.5274 101.343 68.9976 100.912 69.3232C100.482 69.6524 99.9465 69.8151 99.3063 69.8151C98.5756 69.8151 98.0149 69.6017 97.6206 69.1785C97.2264 68.7517 97.031 68.1476 97.031 67.3663C97.031 66.3318 97.3023 65.4817 97.8413 64.8162C98.3802 64.1506 99.0675 63.8178 99.8995 63.8178C100.612 63.8178 101.162 64.0276 101.553 64.4472C101.943 64.8668 102.138 65.4637 102.138 66.2305C102.138 66.3282 102.128 66.5054 102.106 66.7586C102.102 66.8201 102.099 66.8635 102.099 66.8924H97.7509C97.74 67.019 97.7292 67.1348 97.7255 67.2397C97.7219 67.3446 97.7183 67.4423 97.7183 67.5327C97.7183 68.0644 97.863 68.4804 98.1524 68.7842C98.4454 69.0881 98.8469 69.24 99.3605 69.24C99.7946 69.24 100.167 69.1279 100.471 68.9036C100.778 68.6757 101.003 68.3502 101.147 67.9197ZM97.8558 66.2884H101.466C101.466 66.2414 101.473 66.1979 101.473 66.1545C101.473 66.1148 101.473 66.0641 101.473 66.0026C101.473 65.5035 101.335 65.1056 101.064 64.8162C100.793 64.5232 100.42 64.3785 99.9501 64.3785C99.422 64.3785 98.9807 64.5377 98.6298 64.8596C98.279 65.1779 98.0185 65.6554 97.8558 66.2884ZM92.5855 67.8872C92.6289 68.3574 92.7881 68.7083 93.063 68.9398C93.3379 69.1713 93.7285 69.287 94.2386 69.287C94.7052 69.287 95.0669 69.1857 95.3237 68.9796C95.5842 68.777 95.7144 68.4912 95.7144 68.1295C95.7144 67.7244 95.2405 67.341 94.2965 66.9829L94.1626 66.9286C93.5658 66.6971 93.1643 66.4692 92.9472 66.245C92.7338 66.0171 92.6289 65.7277 92.6289 65.3732C92.6289 64.903 92.8098 64.5232 93.1751 64.2374C93.5405 63.9517 94.0252 63.807 94.6328 63.807C95.2803 63.807 95.7795 63.9553 96.1267 64.2483C96.4776 64.5413 96.6657 64.9753 96.6983 65.5505H96.0797C96.0399 65.1381 95.8952 64.8307 95.6457 64.6317C95.3925 64.4364 95.0235 64.3351 94.5352 64.3351C94.1698 64.3351 93.8696 64.4255 93.6309 64.6064C93.3958 64.7836 93.2764 65.0151 93.2764 65.2973C93.2764 65.5215 93.3524 65.7096 93.5007 65.8616C93.649 66.0099 93.9818 66.1871 94.499 66.3933C95.2984 66.7044 95.8084 66.9829 96.0399 67.2252C96.2714 67.4676 96.3872 67.7714 96.3872 68.144C96.3872 68.6432 96.1846 69.0519 95.7795 69.3666C95.3744 69.6849 94.8426 69.8441 94.1843 69.8441C93.479 69.8441 92.9364 69.6777 92.5494 69.3449C92.1623 69.0121 91.9561 68.5274 91.9236 67.8908H92.5855V67.8872ZM86.5159 67.3808C86.5159 66.3607 86.7944 65.5071 87.3551 64.8198C87.9157 64.1289 88.6139 63.7853 89.453 63.7853C90.1946 63.7853 90.7661 64.0023 91.1676 64.4328C91.5727 64.8632 91.7753 65.4745 91.7753 66.2667C91.7753 67.3157 91.5004 68.1729 90.9542 68.8385C90.408 69.5041 89.7026 69.8405 88.8417 69.8405C88.1075 69.8405 87.5396 69.6234 87.1272 69.1894C86.7185 68.7553 86.5123 68.1512 86.5123 67.3808H86.5159ZM89.4169 64.346C88.7839 64.346 88.2594 64.6353 87.8398 65.2141C87.4202 65.7928 87.2104 66.5126 87.2104 67.3808C87.2104 67.9848 87.3551 68.4478 87.6372 68.777C87.923 69.1025 88.3281 69.2689 88.8526 69.2689C89.482 69.2689 90.0101 68.9759 90.4369 68.39C90.8638 67.804 91.0772 67.0878 91.0772 66.2341C91.0772 65.612 90.9361 65.1417 90.6576 64.8234C90.379 64.5051 89.9631 64.346 89.4133 64.346H89.4169ZM84.5011 69.6741L86.1903 61.7416H86.8414L85.1558 69.6741H84.5047H84.5011ZM84.2443 67.3374C84.0309 68.1078 83.6294 68.7264 83.0506 69.1894C82.4683 69.6524 81.8099 69.8839 81.0684 69.8839C80.052 69.8839 79.2598 69.5728 78.6847 68.947C78.1132 68.3212 77.8274 67.4531 77.8274 66.3463C77.8274 65.706 77.9359 65.0802 78.153 64.4726C78.37 63.8613 78.6775 63.3187 79.079 62.8448C79.4371 62.4216 79.8567 62.0961 80.3414 61.8718C80.8261 61.6475 81.3433 61.5354 81.9004 61.5354C82.7323 61.5354 83.3943 61.7597 83.8754 62.2154C84.3601 62.6676 84.6241 63.3042 84.6675 64.1289H83.9622C83.9115 63.4995 83.7017 63.0184 83.3364 62.6748C82.9711 62.3348 82.4755 62.1648 81.8533 62.1648C80.931 62.1648 80.1533 62.5663 79.5275 63.3729C78.9017 64.1796 78.587 65.1707 78.587 66.3463C78.587 67.2542 78.8113 67.9668 79.2562 68.4876C79.7047 69.0049 80.3233 69.2653 81.1118 69.2653C81.6544 69.2653 82.1463 69.0917 82.584 68.7444C83.0217 68.3936 83.3364 67.927 83.5245 67.3374H84.2407H84.2443ZM72.2063 69.6741L72.4053 68.6938H73.2445L73.0347 69.6741H72.2063ZM70.6582 67.9197H71.3056C71.1465 68.5274 70.8535 68.9976 70.4231 69.3232C69.9926 69.6524 69.4573 69.8151 68.817 69.8151C68.0864 69.8151 67.5257 69.6017 67.1314 69.1785C66.7371 68.7517 66.5418 68.1476 66.5418 67.3663C66.5418 66.3318 66.8131 65.4817 67.3521 64.8162C67.891 64.1506 68.5783 63.8178 69.4102 63.8178C70.1228 63.8178 70.6726 64.0276 71.0633 64.4472C71.454 64.8668 71.6493 65.4637 71.6493 66.2305C71.6493 66.3282 71.6384 66.5054 71.6167 66.7586C71.6131 66.8201 71.6095 66.8635 71.6095 66.8924H67.2616C67.2508 67.019 67.2399 67.1348 67.2363 67.2397C67.2327 67.3446 67.2291 67.4423 67.2291 67.5327C67.2291 68.0644 67.3738 68.4804 67.6631 68.7842C67.9561 69.0881 68.3576 69.24 68.8713 69.24C69.3053 69.24 69.6779 69.1279 69.9818 68.9036C70.2892 68.6757 70.5135 68.3502 70.6582 67.9197ZM67.3665 66.2884H70.9765C70.9801 66.2414 70.9837 66.1979 70.9873 66.1545C70.9873 66.1148 70.9873 66.0641 70.9873 66.0026C70.9873 65.5035 70.8499 65.1056 70.5786 64.8162C70.3073 64.5232 69.9347 64.3785 69.4645 64.3785C68.9364 64.3785 68.4951 64.5377 68.1442 64.8596C67.7934 65.1779 67.5329 65.6554 67.3702 66.2884H67.3665ZM62.0963 67.8872C62.1397 68.3574 62.2989 68.7083 62.5738 68.9398C62.8487 69.1713 63.2393 69.287 63.7494 69.287C64.216 69.287 64.5777 69.1857 64.8345 68.9796C65.0949 68.777 65.2252 68.4912 65.2252 68.1295C65.2252 67.7244 64.7513 67.341 63.8072 66.9829L63.6734 66.9286C63.0766 66.6971 62.6751 66.4692 62.458 66.245C62.2446 66.0171 62.1397 65.7277 62.1397 65.3732C62.1397 64.903 62.3206 64.5232 62.6859 64.2374C63.0512 63.9517 63.5359 63.807 64.1436 63.807C64.7911 63.807 65.2903 63.9553 65.6375 64.2483C65.9884 64.5413 66.1765 64.9753 66.209 65.5505H65.5905C65.5507 65.1381 65.406 64.8307 65.1564 64.6317C64.9032 64.4364 64.5343 64.3351 64.046 64.3351C63.6806 64.3351 63.3804 64.4255 63.1417 64.6064C62.9066 64.7836 62.7872 65.0151 62.7872 65.2973C62.7872 65.5215 62.8631 65.7096 63.0114 65.8616C63.1598 66.0099 63.4925 66.1871 64.0098 66.3933C64.8092 66.7044 65.3192 66.9829 65.5507 67.2252C65.7822 67.4676 65.898 67.7714 65.898 68.144C65.898 68.6432 65.6954 69.0519 65.2903 69.3666C64.8851 69.6849 64.3534 69.8441 63.6951 69.8441C62.9897 69.8441 62.4472 69.6777 62.0601 69.3449C61.6731 69.0121 61.4669 68.5274 61.4344 67.8908H62.0963V67.8872ZM59.6402 69.6741L60.852 63.9481H61.5031L60.2913 69.6741H59.6402ZM61.0618 62.6495L61.2499 61.7452H62.0095L61.8214 62.6495H61.0618ZM59.217 69.6741C59.0651 69.7211 58.9421 69.75 58.8445 69.7681C58.7468 69.7862 58.6527 69.7934 58.5659 69.7934C58.2259 69.7934 57.9691 69.7247 57.7991 69.5873C57.6291 69.4498 57.5423 69.2436 57.5423 68.9687C57.5423 68.8602 57.5531 68.7336 57.5712 68.5925C57.5929 68.4515 57.6218 68.2887 57.6653 68.1078L58.4249 64.4689H57.5748L57.687 63.9517H58.5551L58.8987 62.3637H59.5498L59.2062 63.9517H60.266L60.1539 64.4689H59.076L58.2766 68.3285C58.2549 68.4515 58.2404 68.5491 58.2295 68.6251C58.2187 68.701 58.2114 68.7589 58.2114 68.7915C58.2114 68.9542 58.2476 69.0664 58.32 69.1279C58.3923 69.1894 58.5189 69.2219 58.707 69.2219C58.7866 69.2219 58.8806 69.2111 58.9855 69.193C59.0904 69.1713 59.2062 69.1423 59.3364 69.1062L59.2134 69.6777L59.217 69.6741ZM54.5147 69.6741L55.683 63.9481H56.2943L56.1388 64.6968C56.4173 64.3785 56.6669 64.1506 56.8876 64.0096C57.1082 63.8721 57.3361 63.8034 57.5712 63.8034C57.6436 63.8034 57.7195 63.8106 57.7955 63.8287C57.8714 63.8468 57.951 63.8685 58.0342 63.8938L57.8931 64.5304C57.7955 64.5196 57.7195 64.5123 57.658 64.5087C57.6001 64.5051 57.5495 64.5015 57.5061 64.4979C57.0684 64.4979 56.7103 64.6787 56.439 65.0368C56.1641 65.3986 55.9471 65.9809 55.7807 66.7875L55.1983 69.6668H54.5111L54.5147 69.6741ZM53.3319 67.9197H53.9793C53.8202 68.5274 53.5272 68.9976 53.0968 69.3232C52.6663 69.6524 52.131 69.8151 51.4907 69.8151C50.7601 69.8151 50.1994 69.6017 49.8051 69.1785C49.4108 68.7517 49.2155 68.1476 49.2155 67.3663C49.2155 66.3318 49.4868 65.4817 50.0258 64.8162C50.5647 64.1506 51.252 63.8178 52.0839 63.8178C52.7965 63.8178 53.3463 64.0276 53.737 64.4472C54.1277 64.8668 54.323 65.4637 54.323 66.2305C54.323 66.3282 54.3121 66.5054 54.2904 66.7586C54.2868 66.8201 54.2832 66.8635 54.2832 66.8924H49.9353C49.9245 67.019 49.9136 67.1348 49.91 67.2397C49.9064 67.3446 49.9028 67.4423 49.9028 67.5327C49.9028 68.0644 50.0475 68.4804 50.3368 68.7842C50.6298 69.0881 51.0313 69.24 51.545 69.24C51.979 69.24 52.3516 69.1279 52.6555 68.9036C52.9629 68.6757 53.1872 68.3502 53.3319 67.9197ZM50.0402 66.2884H53.6502C53.6538 66.2414 53.6574 66.1979 53.661 66.1545C53.661 66.1148 53.661 66.0641 53.661 66.0026C53.661 65.5035 53.5236 65.1056 53.2523 64.8162C52.981 64.5232 52.6084 64.3785 52.1382 64.3785C51.6101 64.3785 51.1688 64.5377 50.8179 64.8596C50.4671 65.1779 50.2066 65.6554 50.0439 66.2884H50.0402ZM42.5708 71.9565L44.2817 63.9481H44.9219L44.7555 64.686C45.0304 64.3894 45.3234 64.1759 45.6237 64.0349C45.9275 63.8974 46.2603 63.8287 46.6184 63.8287C47.302 63.8287 47.8446 64.0493 48.2497 64.4943C48.6549 64.9392 48.8574 65.536 48.8574 66.2848C48.8574 67.2759 48.5825 68.1114 48.0363 68.7879C47.4901 69.4679 46.8065 69.8079 45.989 69.8079C45.5007 69.8079 45.0847 69.6994 44.7411 69.4823C44.4011 69.2653 44.1442 68.947 43.9742 68.5274L43.2399 71.9565H42.5708ZM46.4845 64.3785C45.8588 64.3785 45.3379 64.6679 44.9147 65.243C44.4951 65.8218 44.2817 66.5271 44.2817 67.3699C44.2817 67.9559 44.4264 68.4153 44.7121 68.7517C45.0015 69.0881 45.3922 69.2545 45.8913 69.2545C46.5388 69.2545 47.0778 68.9687 47.5046 68.4008C47.9278 67.8293 48.1412 67.1059 48.1412 66.2197C48.1412 65.6445 47.9929 65.1924 47.6999 64.8668C47.4069 64.5413 46.9982 64.3749 46.4845 64.3749V64.3785ZM38.2338 69.6741L40.6573 66.6103L39.2032 63.9517H39.876L41.0877 66.1365L42.824 63.9517H43.6161L41.3916 66.7297L43.0338 69.6741H42.2959L40.9937 67.2108L39.0259 69.6741H38.2338ZM33.1914 69.6741L34.8445 61.7416H39.3696L39.214 62.3927H35.4449L34.8481 65.2285H38.5593L38.4219 65.8796H34.707L34.0451 69.0555H38.317L38.2048 69.6741H33.1986H33.1914Z" fill="#575756"/>
<path d="M135.467 48.3618C134.903 47.9711 134.299 47.6745 133.662 47.4792C133.022 47.2839 132.371 47.1862 131.695 47.1862C130.194 47.1862 128.993 47.6673 128.096 48.6295C127.206 49.5916 126.757 50.8793 126.757 52.4781C126.757 53.9033 127.22 55.0789 128.143 55.9976C129.072 56.9164 130.251 57.3794 131.695 57.3794C132.353 57.3794 133.015 57.2637 133.684 57.0322C134.357 56.8043 135.015 56.4643 135.663 56.0049V57.8533C135.07 58.1897 134.411 58.4429 133.695 58.6093C132.975 58.7756 132.205 58.8625 131.384 58.8625C129.532 58.8625 128.016 58.2548 126.83 57.0394C125.643 55.8204 125.05 54.2686 125.05 52.3732C125.05 50.4778 125.665 48.7886 126.902 47.5588C128.139 46.3217 129.745 45.7068 131.724 45.7068C132.451 45.7068 133.138 45.7755 133.782 45.9166C134.426 46.0576 134.994 46.2638 135.5 46.5242L135.471 48.369L135.467 48.3618ZM121.773 58.2729V46.1481H123.509V58.2729H121.773ZM121.353 41.4168C121.353 41.0623 121.48 40.7585 121.737 40.5053C121.99 40.2521 122.297 40.1291 122.652 40.1291C123.006 40.1291 123.31 40.2557 123.571 40.5053C123.827 40.7585 123.958 41.0623 123.958 41.4168C123.958 41.7713 123.831 42.0896 123.585 42.3356C123.332 42.5815 123.021 42.7045 122.652 42.7045C122.283 42.7045 121.979 42.5815 121.729 42.3356C121.483 42.0896 121.357 41.7785 121.357 41.4168H121.353ZM109.149 58.2729V46.1481H110.744V48.0181C111.24 47.2441 111.844 46.6653 112.56 46.2783C113.28 45.8912 114.101 45.6995 115.027 45.6995C116.409 45.6995 117.476 46.083 118.246 46.8462C119.013 47.613 119.393 48.6765 119.393 50.0365V58.2692H117.685V50.7925C117.685 49.5808 117.432 48.6801 116.926 48.0905C116.423 47.5009 115.638 47.2079 114.578 47.2079C113.291 47.2079 112.343 47.5913 111.735 48.3509C111.127 49.1105 110.824 50.3078 110.824 51.9392V58.2656H109.145L109.149 58.2729ZM104.895 58.2729V46.1481H106.631V58.2729H104.895ZM104.475 41.4168C104.475 41.0623 104.602 40.7585 104.859 40.5053C105.112 40.2521 105.42 40.1291 105.774 40.1291C106.129 40.1291 106.432 40.2557 106.693 40.5053C106.95 40.7585 107.08 41.0623 107.08 41.4168C107.08 41.7713 106.953 42.0896 106.707 42.3356C106.454 42.5815 106.143 42.7045 105.774 42.7045C105.405 42.7045 105.101 42.5815 104.852 42.3356C104.606 42.0896 104.479 41.7785 104.479 41.4168H104.475ZM102.265 58.2729H100.529V37.0762H102.265V58.2729ZM98.8001 41.9196C97.8054 41.0623 96.7889 40.4257 95.7544 40.0169C94.7127 39.6046 93.6203 39.402 92.4736 39.402C89.8837 39.402 87.7822 40.2231 86.1653 41.8617C84.5448 43.5039 83.7381 45.6417 83.7381 48.2786C83.7381 49.5989 83.9335 50.7889 84.3314 51.8487C84.7293 52.905 85.3333 53.8454 86.1436 54.6629C86.9466 55.4659 87.8654 56.0772 88.8999 56.4968C89.9308 56.9164 91.0412 57.1262 92.2277 57.1262C93.4141 57.1262 94.4956 56.9309 95.588 56.5366C96.6804 56.146 97.7149 55.5672 98.6916 54.8004V56.9345C97.7077 57.535 96.666 57.9979 95.5699 58.3199C94.4667 58.6418 93.3816 58.8046 92.3073 58.8046C90.8568 58.8046 89.4714 58.5441 88.1511 58.0269C86.8308 57.5096 85.695 56.7753 84.751 55.8385C83.7743 54.8727 83.04 53.7514 82.5336 52.4781C82.0345 51.2013 81.7812 49.7978 81.7812 48.2786C81.7812 46.7594 82.0381 45.3885 82.5553 44.0971C83.069 42.7986 83.8105 41.6845 84.7763 40.7476C85.7131 39.8288 86.8489 39.1054 88.1728 38.5882C89.4967 38.0709 90.8785 37.8105 92.3073 37.8105C93.5877 37.8105 94.7669 37.9877 95.8593 38.3386C96.9481 38.6894 97.9392 39.2103 98.8327 39.9157L98.8037 41.9268L98.8001 41.9196Z" fill="#EE7203"/>
<path fill-rule="evenodd" clip-rule="evenodd" d="M7.45501 38.541L0 58.2582H4.36232L5.91047 53.8634H13.2823L14.7762 58.2582H19.276L11.9005 38.5374H7.45501V38.541ZM7.03903 50.6368L9.61085 43.4025H9.66511L12.1501 50.6368H7.03903ZM32.7825 45.9164C32.2472 45.2147 31.5744 44.6576 30.7677 44.2308C29.9539 43.8076 28.9917 43.6014 27.8668 43.6014C26.9842 43.6014 26.1739 43.775 25.436 44.1223C24.7017 44.4731 24.0904 45.0302 23.6166 45.8043H23.5587V43.9812H19.8294V67.5616H23.754V56.4894H23.8083C24.2858 57.1875 24.8971 57.7229 25.6458 58.0774C26.391 58.4355 27.2048 58.6163 28.0874 58.6163C29.1364 58.6163 30.0515 58.4138 30.8365 58.0086C31.6178 57.6071 32.2725 57.0609 32.797 56.3809C33.3179 55.6973 33.7085 54.916 33.969 54.0334C34.2258 53.1508 34.356 52.232 34.356 51.2734C34.356 50.2606 34.2258 49.2912 33.969 48.358C33.7085 47.4284 33.3142 46.6181 32.7825 45.9164ZM30.265 52.8433C30.1564 53.4004 29.9683 53.8778 29.7007 54.2974C29.4366 54.7134 29.0858 55.0498 28.6553 55.303C28.2213 55.5634 27.6823 55.69 27.0384 55.69C26.3946 55.69 25.8773 55.5634 25.436 55.303C24.9947 55.0498 24.6402 54.7134 24.3762 54.2974C24.1085 53.8778 23.9132 53.4004 23.7938 52.8433C23.6745 52.2935 23.6166 51.7328 23.6166 51.1613C23.6166 50.5898 23.6708 50.0002 23.783 49.4468C23.8915 48.897 24.0832 48.4086 24.3472 47.9854C24.6149 47.5622 24.9622 47.2186 25.3962 46.9473C25.8303 46.6832 26.3656 46.5458 27.0131 46.5458C27.6606 46.5458 28.167 46.6832 28.5974 46.9473C29.0315 47.2186 29.3824 47.5658 29.6609 47.9999C29.9358 48.434 30.1311 48.9259 30.2541 49.4721C30.3735 50.0291 30.4313 50.5898 30.4313 51.1613C30.4313 51.7328 30.3771 52.2935 30.265 52.8433ZM47.9674 45.6523C47.3272 45.0013 46.5495 44.4949 45.6344 44.1331C44.7228 43.775 43.7064 43.5978 42.5851 43.5978C41.4638 43.5978 40.4437 43.7714 39.5466 44.1331C38.646 44.4949 37.8719 45.0013 37.228 45.6523C36.5842 46.3071 36.0886 47.0956 35.7378 48.0252C35.3905 48.9585 35.2096 49.9893 35.2096 51.136C35.2096 52.2826 35.3869 53.3063 35.7378 54.2287C36.085 55.1511 36.5842 55.936 37.228 56.5907C37.8755 57.2418 38.646 57.7482 39.5466 58.0955C40.4473 58.4463 41.4601 58.6163 42.5851 58.6163C43.71 58.6163 44.7265 58.4427 45.6344 58.0955C46.5495 57.7482 47.3272 57.2454 47.9674 56.5907C48.6149 55.936 49.1069 55.1511 49.4577 54.2287C49.805 53.3063 49.9822 52.279 49.9822 51.136C49.9822 49.993 49.805 48.9585 49.4577 48.0252C49.1069 47.0956 48.6113 46.3071 47.9674 45.6523ZM45.8984 52.8071C45.7899 53.3461 45.6018 53.838 45.3341 54.2685C45.0665 54.7025 44.7047 55.0498 44.2562 55.303C43.8077 55.5634 43.2506 55.69 42.5887 55.69C41.9268 55.69 41.3733 55.5634 40.9284 55.303C40.4907 55.0498 40.1326 54.7025 39.8686 54.2685C39.6009 53.838 39.4092 53.3461 39.3007 52.8071C39.1885 52.2609 39.1343 51.7039 39.1343 51.136C39.1343 50.5681 39.1885 50.0002 39.3007 49.4468C39.4128 48.897 39.6009 48.4086 39.8686 47.9854C40.1326 47.5622 40.4907 47.2186 40.9284 46.9473C41.3733 46.6832 41.9268 46.5458 42.5887 46.5458C43.2506 46.5458 43.8077 46.6832 44.2562 46.9473C44.7084 47.2186 45.0665 47.5586 45.3341 47.9854C45.6018 48.4086 45.7899 48.897 45.8984 49.4468C46.0105 50.0002 46.0648 50.5645 46.0648 51.136C46.0648 51.7075 46.0105 52.2609 45.8984 52.8071ZM51.1144 58.2582H55.0354V38.541H51.1144V58.2582ZM57.5494 58.2582H61.4704V38.541H57.5494V58.2582ZM76.8579 48.0252C76.507 47.0956 76.0115 46.3071 75.364 45.6523C74.7201 45.0013 73.946 44.4949 73.0345 44.1331C72.1194 43.775 71.1029 43.5978 69.9816 43.5978C68.8603 43.5978 67.8475 43.7714 66.9432 44.1331C66.0389 44.4949 65.2684 45.0013 64.6246 45.6523C63.9807 46.3071 63.4815 47.0956 63.1307 48.0252C62.7798 48.9585 62.6062 49.9893 62.6062 51.136C62.6062 52.2826 62.7762 53.3063 63.1307 54.2287C63.4815 55.1511 63.9807 55.936 64.6246 56.5907C65.2684 57.2418 66.0425 57.7482 66.9432 58.0955C67.8511 58.4463 68.8603 58.6163 69.9816 58.6163C71.1029 58.6163 72.1194 58.4427 73.0345 58.0955C73.946 57.7482 74.7201 57.2454 75.364 56.5907C76.0115 55.936 76.507 55.1511 76.8579 54.2287C77.2087 53.3063 77.3824 52.279 77.3824 51.136C77.3824 49.993 77.2087 48.9585 76.8579 48.0252ZM73.2913 52.8071C73.1864 53.3461 72.9947 53.838 72.7271 54.2685C72.4594 54.7025 72.1013 55.0498 71.6491 55.303C71.2006 55.5634 70.6399 55.69 69.978 55.69C69.316 55.69 68.7626 55.5634 68.3177 55.303C67.8764 55.0498 67.5219 54.7025 67.2542 54.2685C66.9866 53.838 66.8021 53.3461 66.69 52.8071C66.5815 52.2609 66.5272 51.7039 66.5272 51.136C66.5272 50.5681 66.5815 50.0002 66.69 49.4468C66.8021 48.897 66.9866 48.4086 67.2542 47.9854C67.5219 47.5622 67.8764 47.2186 68.3177 46.9473C68.7626 46.6832 69.3124 46.5458 69.978 46.5458C70.6436 46.5458 71.197 46.6832 71.6491 46.9473C72.1013 47.2186 72.4558 47.5586 72.7271 47.9854C72.9911 48.4086 73.1864 48.897 73.2913 49.4468C73.4035 50.0002 73.4613 50.5645 73.4613 51.136C73.4613 51.7075 73.4035 52.2609 73.2913 52.8071Z" fill="#00779C"/>
<path d="M34.9346 40.8163L37.2604 42.6249L39.5863 40.8163V35.3652H34.9346V40.8163ZM39.8178 29.415H34.2509V28.0911L21.5438 42.4043H28.2717L34.8948 34.7648H39.8178V34.0341H39.825V29.8092H39.8178V29.4186V29.415ZM34.931 28.8073H39.5827V24.2243L42.0387 20.4226H32.1855L34.931 24.2243V28.8073ZM20.6901 12.7795H7.83105V35.1807H13.8935L27.8594 19.8656L20.6901 12.7795ZM16.0818 20.5529H14.0815V22.5532H12.3236V20.5529H10.3233V18.7949H12.3236V16.7982H14.0815V18.7949H16.0818V20.5529ZM25.9821 34.1643L26.9623 30.728H28.2754V21.1569L14.6856 36.0525V42.6177L21.4714 35.1771H24.6112C24.6112 35.1771 25.6999 35.2893 25.9821 34.1643ZM26.7344 26.0582L25.7361 27.0602L24.7378 26.0582H26.7381H26.7344Z" fill="#00779C"/>
<path fill-rule="evenodd" clip-rule="evenodd" d="M31.4879 7.12585C31.4445 7.11138 31.383 7.09691 31.3396 7.07882C23.483 5.0532 23.002 1.33474 23.2118 0C22.6583 1.52645 22.7017 4.53233 23.2877 6.33007C24.2282 7.27054 27.357 8.64868 30.381 8.94891C30.7102 8.99231 31.0249 9.05381 31.3396 9.11168C39.2576 10.602 39.9195 17.0586 37.0439 20.1839C37.3549 19.587 40.6791 12.8736 32.5332 11.499C32.1281 11.4375 31.7555 11.3652 31.4119 11.3037C25.6461 10.2402 25.1252 9.37574 24.8395 9.28531C24.6116 10.2728 26.0368 15.619 31.4119 16.2882H31.4553C36.4977 16.8995 36.986 19.3953 37.0185 20.2092C37.0185 20.2092 37.0185 20.2092 37.0113 20.2164C37.0113 20.2164 37.0113 20.2092 37.0185 20.2092C37.0185 20.2164 37.0185 20.22 37.0185 20.2273C37.0185 20.2273 37.0258 20.2164 37.033 20.202C38.4871 19.1638 39.4095 17.2901 39.4963 15.2645V14.7002C39.3625 11.5243 37.1198 8.13866 31.4915 7.12585" fill="#FBB900"/>
<path d="M132.819 35.774C134.118 35.774 135.076 36.823 135.076 38.1215C135.076 39.4201 134.118 40.451 132.855 40.4329C131.557 40.4329 130.58 39.402 130.58 38.1034C130.58 36.8049 131.557 35.774 132.819 35.774ZM132.855 35.188C131.166 35.188 129.835 36.4685 129.835 38.1034C129.835 39.7384 131.166 41.037 132.837 41.037C134.508 41.037 135.821 39.7384 135.821 38.1034C135.821 36.4685 134.508 35.188 132.855 35.188ZM132.392 37.1413C132.465 37.1232 132.588 37.1051 132.765 37.1051C133.192 37.1051 133.387 37.2823 133.387 37.55C133.387 37.8539 133.083 37.9768 132.711 37.9768H132.392V37.1413ZM132.374 38.4543H132.693C133.065 38.4543 133.242 38.5954 133.297 38.8992C133.387 39.2537 133.438 39.5033 133.528 39.6082H134.237C134.183 39.5033 134.114 39.3405 134.024 38.8992C133.933 38.5086 133.792 38.2771 133.51 38.1866V38.1505C133.846 38.0419 134.114 37.8141 134.114 37.456C134.114 37.1702 133.991 36.9568 133.814 36.8338C133.619 36.6927 133.369 36.6023 132.819 36.6023C132.338 36.6023 131.965 36.6566 131.701 36.6927V39.6082H132.378V38.4543H132.374Z" fill="#EE7203"/>
</g>
<defs>
<clipPath id="clip0_157_444">
<rect width="135.822" height="72" fill="white"/>
</clipPath>
</defs>
</svg>
