<svg width="136" height="72" viewBox="0 0 136 72" fill="none" xmlns="http://www.w3.org/2000/svg">
<g clip-path="url(#clip0_157_2659)">
<path d="M134.783 69.6813L134.982 68.701H135.821L135.612 69.6813H134.783ZM134.512 63.9553L133.3 69.6813H132.682L132.859 68.8204C132.544 69.1496 132.219 69.3955 131.89 69.5583C131.557 69.7211 131.206 69.8043 130.841 69.8043C130.341 69.8043 129.951 69.6741 129.665 69.4172C129.383 69.1604 129.242 68.8023 129.242 68.3466C129.242 68.2453 129.249 68.1368 129.26 68.0246C129.274 67.9125 129.292 67.7967 129.318 67.6774L130.114 63.9553H130.765L129.954 67.775C129.929 67.8872 129.911 67.9885 129.896 68.0825C129.882 68.1765 129.878 68.2597 129.878 68.3357C129.878 68.6251 129.972 68.8493 130.161 69.0085C130.349 69.164 130.62 69.2436 130.971 69.2436C131.568 69.2436 132.049 69.0483 132.421 68.6576C132.79 68.267 133.065 67.6629 133.242 66.8382L133.861 63.9589H134.512V63.9553ZM123.523 67.3844C123.523 66.3643 123.802 65.5107 124.362 64.8234C124.923 64.1325 125.621 63.7889 126.46 63.7889C127.202 63.7889 127.773 64.0059 128.175 64.4364C128.58 64.8668 128.782 65.4781 128.782 66.2703C128.782 67.3193 128.508 68.1766 127.961 68.8421C127.415 69.5077 126.71 69.8441 125.849 69.8441C125.115 69.8441 124.547 69.627 124.134 69.193C123.726 68.7589 123.519 68.1548 123.519 67.3844H123.523ZM126.424 64.3496C125.791 64.3496 125.267 64.6389 124.847 65.2177C124.427 65.7964 124.218 66.5163 124.218 67.3844C124.218 67.9885 124.362 68.4515 124.644 68.7806C124.93 69.1062 125.335 69.2726 125.86 69.2726C126.489 69.2726 127.017 68.9796 127.444 68.3936C127.871 67.8076 128.084 67.0914 128.084 66.2377C128.084 65.6156 127.943 65.1453 127.665 64.827C127.386 64.5087 126.97 64.3496 126.42 64.3496H126.424ZM118.445 71.9059L118.553 71.3343C118.64 71.3416 118.712 71.3488 118.774 71.3561C118.835 71.3633 118.889 71.3633 118.94 71.3633C119.117 71.3633 119.262 71.3199 119.381 71.2331C119.497 71.1463 119.616 70.9907 119.736 70.7664L120.336 69.609L119.179 63.9481H119.841L120.788 68.7987L123.248 63.9481H123.932L120.467 70.7809C120.213 71.2765 119.985 71.602 119.779 71.7576C119.577 71.9131 119.32 71.9927 119.02 71.9927C118.936 71.9927 118.85 71.9854 118.759 71.971C118.669 71.9565 118.564 71.9348 118.448 71.9059H118.445ZM110.599 67.3808C110.599 66.3607 110.877 65.5071 111.438 64.8198C111.999 64.1289 112.697 63.7853 113.536 63.7853C114.278 63.7853 114.849 64.0023 115.251 64.4328C115.656 64.8632 115.858 65.4745 115.858 66.2667C115.858 67.3157 115.583 68.1729 115.037 68.8385C114.491 69.5041 113.786 69.8405 112.925 69.8405C112.19 69.8405 111.623 69.6234 111.21 69.1894C110.801 68.7553 110.595 68.1512 110.595 67.3808H110.599ZM113.5 64.346C112.867 64.346 112.342 64.6353 111.923 65.2141C111.503 65.7928 111.293 66.5126 111.293 67.3808C111.293 67.9848 111.438 68.4478 111.72 68.777C112.006 69.1025 112.411 69.2689 112.936 69.2689C113.565 69.2689 114.093 68.9759 114.52 68.39C114.947 67.804 115.16 67.0878 115.16 66.2341C115.16 65.612 115.019 65.1417 114.741 64.8234C114.462 64.5051 114.046 64.346 113.496 64.346H113.5ZM109.966 69.6741C109.814 69.7211 109.691 69.75 109.593 69.7681C109.496 69.7862 109.402 69.7934 109.315 69.7934C108.975 69.7934 108.718 69.7247 108.548 69.5873C108.378 69.4498 108.291 69.2436 108.291 68.9687C108.291 68.8602 108.302 68.7336 108.32 68.5925C108.342 68.4515 108.371 68.2887 108.414 68.1078L109.174 64.4689H108.324L108.436 63.9517H109.304L109.648 62.3637H110.299L109.955 63.9517H111.015L110.903 64.4689H109.825L109.025 68.3285C109.004 68.4515 108.989 68.5491 108.978 68.6251C108.967 68.701 108.96 68.7589 108.96 68.7915C108.96 68.9542 108.996 69.0664 109.069 69.1279C109.141 69.1894 109.268 69.2219 109.456 69.2219C109.535 69.2219 109.629 69.2111 109.734 69.193C109.839 69.1713 109.955 69.1423 110.085 69.1062L109.962 69.6777L109.966 69.6741ZM102.33 69.6741L103.498 63.9481H104.11L103.954 64.6968C104.233 64.3785 104.482 64.1506 104.703 64.0096C104.923 63.8721 105.151 63.8034 105.386 63.8034C105.459 63.8034 105.535 63.8106 105.611 63.8287C105.687 63.8468 105.766 63.8685 105.849 63.8938L105.708 64.5304C105.611 64.5196 105.535 64.5123 105.473 64.5087C105.415 64.5051 105.365 64.5015 105.321 64.4979C104.884 64.4979 104.526 64.6787 104.254 65.0368C103.979 65.3986 103.762 65.9809 103.596 66.7875L103.014 69.6668H102.326L102.33 69.6741ZM101.147 67.9197H101.795C101.635 68.5274 101.342 68.9976 100.912 69.3232C100.482 69.6524 99.9462 69.8151 99.306 69.8151C98.5753 69.8151 98.0147 69.6017 97.6204 69.1785C97.2261 68.7517 97.0308 68.1476 97.0308 67.3663C97.0308 66.3318 97.3021 65.4817 97.841 64.8162C98.38 64.1506 99.0673 63.8178 99.8992 63.8178C100.612 63.8178 101.162 64.0276 101.552 64.4472C101.943 64.8668 102.138 65.4637 102.138 66.2305C102.138 66.3282 102.127 66.5054 102.106 66.7586C102.102 66.8201 102.098 66.8635 102.098 66.8924H97.7506C97.7398 67.019 97.7289 67.1348 97.7253 67.2397C97.7217 67.3446 97.7181 67.4423 97.7181 67.5327C97.7181 68.0644 97.8627 68.4804 98.1521 68.7842C98.4451 69.0881 98.8466 69.24 99.3603 69.24C99.7943 69.24 100.167 69.1279 100.471 68.9036C100.778 68.6757 101.002 68.3502 101.147 67.9197ZM97.8555 66.2884H101.465C101.465 66.2414 101.473 66.1979 101.473 66.1545C101.473 66.1148 101.473 66.0641 101.473 66.0026C101.473 65.5035 101.335 65.1056 101.064 64.8162C100.793 64.5232 100.42 64.3785 99.9499 64.3785C99.4218 64.3785 98.9805 64.5377 98.6296 64.8596C98.2787 65.1779 98.0183 65.6554 97.8555 66.2884ZM92.5853 67.8872C92.6287 68.3574 92.7878 68.7083 93.0627 68.9398C93.3377 69.1713 93.7283 69.287 94.2383 69.287C94.7049 69.287 95.0667 69.1857 95.3235 68.9796C95.5839 68.777 95.7141 68.4912 95.7141 68.1295C95.7141 67.7244 95.2403 67.341 94.2962 66.9829L94.1624 66.9286C93.5655 66.6971 93.164 66.4692 92.947 66.245C92.7336 66.0171 92.6287 65.7277 92.6287 65.3732C92.6287 64.903 92.8095 64.5232 93.1749 64.2374C93.5402 63.9517 94.0249 63.807 94.6326 63.807C95.2801 63.807 95.7793 63.9553 96.1265 64.2483C96.4774 64.5413 96.6655 64.9753 96.698 65.5505H96.0795C96.0397 65.1381 95.895 64.8307 95.6454 64.6317C95.3922 64.4364 95.0233 64.3351 94.5349 64.3351C94.1696 64.3351 93.8694 64.4255 93.6306 64.6064C93.3955 64.7836 93.2762 65.0151 93.2762 65.2973C93.2762 65.5215 93.3521 65.7096 93.5004 65.8616C93.6487 66.0099 93.9815 66.1871 94.4988 66.3933C95.2982 66.7044 95.8082 66.9829 96.0397 67.2252C96.2712 67.4676 96.3869 67.7714 96.3869 68.144C96.3869 68.6432 96.1844 69.0519 95.7793 69.3666C95.3741 69.6849 94.8424 69.8441 94.1841 69.8441C93.4787 69.8441 92.9361 69.6777 92.5491 69.3449C92.1621 69.0121 91.9559 68.5274 91.9233 67.8908H92.5853V67.8872ZM86.5156 67.3808C86.5156 66.3607 86.7942 65.5071 87.3548 64.8198C87.9155 64.1289 88.6136 63.7853 89.4528 63.7853C90.1943 63.7853 90.7658 64.0023 91.1673 64.4328C91.5725 64.8632 91.775 65.4745 91.775 66.2667C91.775 67.3157 91.5001 68.1729 90.9539 68.8385C90.4077 69.5041 89.7024 69.8405 88.8415 69.8405C88.1072 69.8405 87.5393 69.6234 87.1269 69.1894C86.7182 68.7553 86.512 68.1512 86.512 67.3808H86.5156ZM89.4166 64.346C88.7836 64.346 88.2591 64.6353 87.8395 65.2141C87.4199 65.7928 87.2101 66.5126 87.2101 67.3808C87.2101 67.9848 87.3548 68.4478 87.637 68.777C87.9227 69.1025 88.3279 69.2689 88.8524 69.2689C89.4817 69.2689 90.0099 68.9759 90.4367 68.39C90.8635 67.804 91.0769 67.0878 91.0769 66.2341C91.0769 65.612 90.9358 65.1417 90.6573 64.8234C90.3788 64.5051 89.9628 64.346 89.413 64.346H89.4166ZM84.5009 69.6741L86.1901 61.7416H86.8412L85.1556 69.6741H84.5045H84.5009ZM84.2441 67.3374C84.0306 68.1078 83.6291 68.7264 83.0504 69.1894C82.468 69.6524 81.8097 69.8839 81.0682 69.8839C80.0517 69.8839 79.2596 69.5728 78.6845 68.947C78.1129 68.3212 77.8272 67.4531 77.8272 66.3463C77.8272 65.706 77.9357 65.0802 78.1527 64.4726C78.3698 63.8613 78.6772 63.3187 79.0787 62.8448C79.4368 62.4216 79.8564 62.0961 80.3411 61.8718C80.8258 61.6475 81.3431 61.5354 81.9001 61.5354C82.7321 61.5354 83.394 61.7597 83.8751 62.2154C84.3598 62.6676 84.6239 63.3042 84.6673 64.1289H83.9619C83.9113 63.4995 83.7015 63.0184 83.3362 62.6748C82.9708 62.3348 82.4753 62.1648 81.8531 62.1648C80.9307 62.1648 80.153 62.5663 79.5273 63.3729C78.9015 64.1796 78.5868 65.1707 78.5868 66.3463C78.5868 67.2542 78.8111 67.9668 79.256 68.4876C79.7045 69.0049 80.323 69.2653 81.1116 69.2653C81.6542 69.2653 82.1461 69.0917 82.5838 68.7444C83.0215 68.3936 83.3361 67.927 83.5242 67.3374H84.2404H84.2441ZM72.2061 69.6741L72.405 68.6938H73.2442L73.0344 69.6741H72.2061ZM70.6579 67.9197H71.3054C71.1462 68.5274 70.8533 68.9976 70.4228 69.3232C69.9924 69.6524 69.457 69.8151 68.8168 69.8151C68.0861 69.8151 67.5254 69.6017 67.1312 69.1785C66.7369 68.7517 66.5416 68.1476 66.5416 67.3663C66.5416 66.3318 66.8129 65.4817 67.3518 64.8162C67.8908 64.1506 68.578 63.8178 69.41 63.8178C70.1226 63.8178 70.6724 64.0276 71.0631 64.4472C71.4537 64.8668 71.649 65.4637 71.649 66.2305C71.649 66.3282 71.6382 66.5054 71.6165 66.7586C71.6129 66.8201 71.6092 66.8635 71.6092 66.8924H67.2614C67.2505 67.019 67.2397 67.1348 67.2361 67.2397C67.2325 67.3446 67.2288 67.4423 67.2288 67.5327C67.2288 68.0644 67.3735 68.4804 67.6629 68.7842C67.9559 69.0881 68.3574 69.24 68.871 69.24C69.3051 69.24 69.6777 69.1279 69.9815 68.9036C70.289 68.6757 70.5132 68.3502 70.6579 67.9197ZM67.3663 66.2884H70.9762C70.9799 66.2414 70.9835 66.1979 70.9871 66.1545C70.9871 66.1148 70.9871 66.0641 70.9871 66.0026C70.9871 65.5035 70.8496 65.1056 70.5783 64.8162C70.3071 64.5232 69.9345 64.3785 69.4643 64.3785C68.9361 64.3785 68.4949 64.5377 68.144 64.8596C67.7931 65.1779 67.5327 65.6554 67.3699 66.2884H67.3663ZM62.0961 67.8872C62.1395 68.3574 62.2986 68.7083 62.5735 68.9398C62.8484 69.1713 63.2391 69.287 63.7491 69.287C64.2157 69.287 64.5774 69.1857 64.8343 68.9796C65.0947 68.777 65.2249 68.4912 65.2249 68.1295C65.2249 67.7244 64.7511 67.341 63.807 66.9829L63.6731 66.9286C63.0763 66.6971 62.6748 66.4692 62.4578 66.245C62.2444 66.0171 62.1395 65.7277 62.1395 65.3732C62.1395 64.903 62.3203 64.5232 62.6857 64.2374C63.051 63.9517 63.5357 63.807 64.1434 63.807C64.7909 63.807 65.29 63.9553 65.6373 64.2483C65.9881 64.5413 66.1762 64.9753 66.2088 65.5505H65.5903C65.5505 65.1381 65.4058 64.8307 65.1562 64.6317C64.903 64.4364 64.534 64.3351 64.0457 64.3351C63.6804 64.3351 63.3802 64.4255 63.1414 64.6064C62.9063 64.7836 62.7869 65.0151 62.7869 65.2973C62.7869 65.5215 62.8629 65.7096 63.0112 65.8616C63.1595 66.0099 63.4923 66.1871 64.0096 66.3933C64.8089 66.7044 65.319 66.9829 65.5505 67.2252C65.782 67.4676 65.8977 67.7714 65.8977 68.144C65.8977 68.6432 65.6952 69.0519 65.29 69.3666C64.8849 69.6849 64.3532 69.8441 63.6949 69.8441C62.9895 69.8441 62.4469 69.6777 62.0599 69.3449C61.6729 69.0121 61.4667 68.5274 61.4341 67.8908H62.0961V67.8872ZM59.64 69.6741L60.8517 63.9481H61.5028L60.2911 69.6741H59.64ZM61.0615 62.6495L61.2496 61.7452H62.0092L61.8212 62.6495H61.0615ZM59.2168 69.6741C59.0649 69.7211 58.9419 69.75 58.8442 69.7681C58.7465 69.7862 58.6525 69.7934 58.5657 69.7934C58.2257 69.7934 57.9689 69.7247 57.7988 69.5873C57.6288 69.4498 57.542 69.2436 57.542 68.9687C57.542 68.8602 57.5529 68.7336 57.571 68.5925C57.5927 68.4515 57.6216 68.2887 57.665 68.1078L58.4246 64.4689H57.5746L57.6867 63.9517H58.5548L58.8985 62.3637H59.5496L59.2059 63.9517H60.2658L60.1536 64.4689H59.0757L58.2763 68.3285C58.2546 68.4515 58.2401 68.5491 58.2293 68.6251C58.2184 68.701 58.2112 68.7589 58.2112 68.7915C58.2112 68.9542 58.2474 69.0664 58.3197 69.1279C58.3921 69.1894 58.5187 69.2219 58.7068 69.2219C58.7863 69.2219 58.8804 69.2111 58.9853 69.193C59.0902 69.1713 59.2059 69.1423 59.3361 69.1062L59.2132 69.6777L59.2168 69.6741ZM54.5144 69.6741L55.6828 63.9481H56.2941L56.1386 64.6968C56.4171 64.3785 56.6667 64.1506 56.8873 64.0096C57.108 63.8721 57.3358 63.8034 57.571 63.8034C57.6433 63.8034 57.7193 63.8106 57.7952 63.8287C57.8712 63.8468 57.9508 63.8685 58.034 63.8938L57.8929 64.5304C57.7952 64.5196 57.7193 64.5123 57.6578 64.5087C57.5999 64.5051 57.5493 64.5015 57.5059 64.4979C57.0682 64.4979 56.7101 64.6787 56.4388 65.0368C56.1639 65.3986 55.9469 65.9809 55.7805 66.7875L55.1981 69.6668H54.5108L54.5144 69.6741ZM53.3316 67.9197H53.9791C53.8199 68.5274 53.527 68.9976 53.0965 69.3232C52.6661 69.6524 52.1307 69.8151 51.4905 69.8151C50.7598 69.8151 50.1992 69.6017 49.8049 69.1785C49.4106 68.7517 49.2153 68.1476 49.2153 67.3663C49.2153 66.3318 49.4866 65.4817 50.0255 64.8162C50.5645 64.1506 51.2518 63.8178 52.0837 63.8178C52.7963 63.8178 53.3461 64.0276 53.7368 64.4472C54.1274 64.8668 54.3227 65.4637 54.3227 66.2305C54.3227 66.3282 54.3119 66.5054 54.2902 66.7586C54.2866 66.8201 54.2829 66.8635 54.2829 66.8924H49.9351C49.9242 67.019 49.9134 67.1348 49.9098 67.2397C49.9062 67.3446 49.9025 67.4423 49.9025 67.5327C49.9025 68.0644 50.0472 68.4804 50.3366 68.7842C50.6296 69.0881 51.0311 69.24 51.5447 69.24C51.9788 69.24 52.3514 69.1279 52.6552 68.9036C52.9627 68.6757 53.1869 68.3502 53.3316 67.9197ZM50.04 66.2884H53.6499C53.6536 66.2414 53.6572 66.1979 53.6608 66.1545C53.6608 66.1148 53.6608 66.0641 53.6608 66.0026C53.6608 65.5035 53.5233 65.1056 53.2521 64.8162C52.9808 64.5232 52.6082 64.3785 52.138 64.3785C51.6098 64.3785 51.1686 64.5377 50.8177 64.8596C50.4668 65.1779 50.2064 65.6554 50.0436 66.2884H50.04ZM42.5705 71.9565L44.2814 63.9481H44.9217L44.7553 64.686C45.0302 64.3894 45.3232 64.1759 45.6234 64.0349C45.9273 63.8974 46.26 63.8287 46.6181 63.8287C47.3018 63.8287 47.8444 64.0493 48.2495 64.4943C48.6546 64.9392 48.8572 65.536 48.8572 66.2848C48.8572 67.2759 48.5823 68.1114 48.0361 68.7879C47.4899 69.4679 46.8062 69.8079 45.9887 69.8079C45.5004 69.8079 45.0845 69.6994 44.7408 69.4823C44.4008 69.2653 44.144 68.947 43.974 68.5274L43.2397 71.9565H42.5705ZM46.4843 64.3785C45.8585 64.3785 45.3377 64.6679 44.9144 65.243C44.4949 65.8218 44.2814 66.5271 44.2814 67.3699C44.2814 67.9559 44.4261 68.4153 44.7119 68.7517C45.0013 69.0881 45.3919 69.2545 45.8911 69.2545C46.5386 69.2545 47.0775 68.9687 47.5043 68.4008C47.9276 67.8293 48.141 67.1059 48.141 66.2197C48.141 65.6445 47.9927 65.1924 47.6997 64.8668C47.4067 64.5413 46.9979 64.3749 46.4843 64.3749V64.3785ZM38.2335 69.6741L40.657 66.6103L39.2029 63.9517H39.8757L41.0875 66.1365L42.8237 63.9517H43.6159L41.3913 66.7297L43.0335 69.6741H42.2956L40.9934 67.2108L39.0257 69.6741H38.2335ZM33.1912 69.6741L34.8442 61.7416H39.3693L39.2138 62.3927H35.4447L34.8478 65.2285H38.5591L38.4216 65.8796H34.7068L34.0448 69.0555H38.3167L38.2046 69.6741H33.1984H33.1912Z" fill="white"/>
<path d="M135.467 48.3618C134.903 47.9711 134.299 47.6745 133.662 47.4792C133.022 47.2839 132.371 47.1862 131.694 47.1862C130.193 47.1862 128.992 47.6673 128.095 48.6295C127.205 49.5916 126.757 50.8793 126.757 52.4781C126.757 53.9033 127.22 55.0789 128.142 55.9976C129.072 56.9164 130.251 57.3794 131.694 57.3794C132.353 57.3794 133.015 57.2637 133.684 57.0322C134.357 56.8043 135.015 56.4643 135.662 56.0049V57.8533C135.069 58.1897 134.411 58.4429 133.695 58.6093C132.975 58.7756 132.204 58.8625 131.383 58.8625C129.531 58.8625 128.016 58.2548 126.829 57.0394C125.643 55.8204 125.05 54.2686 125.05 52.3732C125.05 50.4778 125.665 48.7886 126.902 47.5588C128.139 46.3217 129.745 45.7068 131.723 45.7068C132.45 45.7068 133.138 45.7755 133.781 45.9166C134.425 46.0576 134.993 46.2638 135.5 46.5242L135.471 48.369L135.467 48.3618ZM121.772 58.2729V46.1481H123.509V58.2729H121.772ZM121.353 41.4168C121.353 41.0623 121.479 40.7585 121.736 40.5053C121.989 40.2521 122.297 40.1291 122.651 40.1291C123.006 40.1291 123.31 40.2557 123.57 40.5053C123.827 40.7585 123.957 41.0623 123.957 41.4168C123.957 41.7713 123.831 42.0896 123.585 42.3356C123.331 42.5815 123.02 42.7045 122.651 42.7045C122.282 42.7045 121.979 42.5815 121.729 42.3356C121.483 42.0896 121.356 41.7785 121.356 41.4168H121.353ZM109.148 58.2729V46.1481H110.744V48.0181C111.239 47.2441 111.843 46.6653 112.559 46.2783C113.279 45.8912 114.1 45.6995 115.026 45.6995C116.408 45.6995 117.475 46.083 118.246 46.8462C119.013 47.613 119.392 48.6765 119.392 50.0365V58.2692H117.685V50.7925C117.685 49.5808 117.432 48.6801 116.925 48.0905C116.423 47.5009 115.638 47.2079 114.578 47.2079C113.29 47.2079 112.342 47.5913 111.735 48.3509C111.127 49.1105 110.823 50.3078 110.823 51.9392V58.2656H109.145L109.148 58.2729ZM104.895 58.2729V46.1481H106.631V58.2729H104.895ZM104.475 41.4168C104.475 41.0623 104.602 40.7585 104.859 40.5053C105.112 40.2521 105.419 40.1291 105.774 40.1291C106.128 40.1291 106.432 40.2557 106.692 40.5053C106.949 40.7585 107.079 41.0623 107.079 41.4168C107.079 41.7713 106.953 42.0896 106.707 42.3356C106.454 42.5815 106.143 42.7045 105.774 42.7045C105.405 42.7045 105.101 42.5815 104.851 42.3356C104.605 42.0896 104.479 41.7785 104.479 41.4168H104.475ZM102.265 58.2729H100.529V37.0762H102.265V58.2729ZM98.7997 41.9196C97.805 41.0623 96.7886 40.4257 95.7541 40.0169C94.7123 39.6046 93.6199 39.402 92.4733 39.402C89.8834 39.402 87.7818 40.2231 86.1649 41.8617C84.5444 43.5039 83.7378 45.6417 83.7378 48.2786C83.7378 49.5989 83.9331 50.7889 84.331 51.8487C84.7289 52.905 85.333 53.8454 86.1432 54.6629C86.9462 55.4659 87.865 56.0772 88.8995 56.4968C89.9304 56.9164 91.0409 57.1262 92.2273 57.1262C93.4137 57.1262 94.4953 56.9309 95.5877 56.5366C96.6801 56.146 97.7146 55.5672 98.6912 54.8004V56.9345C97.7073 57.535 96.6656 57.9979 95.5696 58.3199C94.4663 58.6418 93.3812 58.8046 92.3069 58.8046C90.8564 58.8046 89.471 58.5441 88.1507 58.0269C86.8305 57.5096 85.6947 56.7753 84.7506 55.8385C83.774 54.8727 83.0397 53.7514 82.5333 52.4781C82.0341 51.2013 81.7809 49.7978 81.7809 48.2786C81.7809 46.7594 82.0377 45.3885 82.555 44.0971C83.0686 42.7986 83.8101 41.6845 84.7759 40.7476C85.7128 39.8288 86.8486 39.1054 88.1724 38.5882C89.4963 38.0709 90.8781 37.8105 92.3069 37.8105C93.5874 37.8105 94.7666 37.9877 95.859 38.3386C96.9477 38.6894 97.9388 39.2103 98.8323 39.9157L98.8033 41.9268L98.7997 41.9196Z" fill="white"/>
<path fill-rule="evenodd" clip-rule="evenodd" d="M7.45501 38.541L0 58.2582H4.36232L5.91047 53.8634H13.2823L14.7762 58.2582H19.276L11.9005 38.5374H7.45501V38.541ZM7.03903 50.6368L9.61085 43.4025H9.66511L12.1501 50.6368H7.03903ZM32.7825 45.9164C32.2472 45.2147 31.5744 44.6576 30.7677 44.2308C29.9539 43.8076 28.9917 43.6014 27.8668 43.6014C26.9842 43.6014 26.1739 43.775 25.436 44.1223C24.7017 44.4731 24.0904 45.0302 23.6166 45.8043H23.5587V43.9812H19.8294V67.5616H23.754V56.4894H23.8083C24.2858 57.1875 24.8971 57.7229 25.6458 58.0774C26.391 58.4355 27.2048 58.6163 28.0874 58.6163C29.1364 58.6163 30.0515 58.4138 30.8365 58.0086C31.6178 57.6071 32.2725 57.0609 32.797 56.3809C33.3179 55.6973 33.7085 54.916 33.969 54.0334C34.2258 53.1508 34.356 52.232 34.356 51.2734C34.356 50.2606 34.2258 49.2912 33.969 48.358C33.7085 47.4284 33.3142 46.6181 32.7825 45.9164ZM30.265 52.8433C30.1564 53.4004 29.9683 53.8778 29.7007 54.2974C29.4366 54.7134 29.0858 55.0498 28.6553 55.303C28.2213 55.5634 27.6823 55.69 27.0384 55.69C26.3946 55.69 25.8773 55.5634 25.436 55.303C24.9947 55.0498 24.6402 54.7134 24.3762 54.2974C24.1085 53.8778 23.9132 53.4004 23.7938 52.8433C23.6745 52.2935 23.6166 51.7328 23.6166 51.1613C23.6166 50.5898 23.6708 50.0002 23.783 49.4468C23.8915 48.897 24.0832 48.4086 24.3472 47.9854C24.6149 47.5622 24.9622 47.2186 25.3962 46.9473C25.8303 46.6832 26.3656 46.5458 27.0131 46.5458C27.6606 46.5458 28.167 46.6832 28.5974 46.9473C29.0315 47.2186 29.3824 47.5658 29.6609 47.9999C29.9358 48.434 30.1311 48.9259 30.2541 49.4721C30.3735 50.0291 30.4313 50.5898 30.4313 51.1613C30.4313 51.7328 30.3771 52.2935 30.265 52.8433ZM47.9674 45.6523C47.3272 45.0013 46.5495 44.4949 45.6344 44.1331C44.7228 43.775 43.7064 43.5978 42.5851 43.5978C41.4638 43.5978 40.4437 43.7714 39.5466 44.1331C38.646 44.4949 37.8719 45.0013 37.228 45.6523C36.5842 46.3071 36.0886 47.0956 35.7378 48.0252C35.3905 48.9585 35.2096 49.9893 35.2096 51.136C35.2096 52.2826 35.3869 53.3063 35.7378 54.2287C36.085 55.1511 36.5842 55.936 37.228 56.5907C37.8755 57.2418 38.646 57.7482 39.5466 58.0955C40.4473 58.4463 41.4601 58.6163 42.5851 58.6163C43.71 58.6163 44.7265 58.4427 45.6344 58.0955C46.5495 57.7482 47.3272 57.2454 47.9674 56.5907C48.6149 55.936 49.1069 55.1511 49.4577 54.2287C49.805 53.3063 49.9822 52.279 49.9822 51.136C49.9822 49.993 49.805 48.9585 49.4577 48.0252C49.1069 47.0956 48.6113 46.3071 47.9674 45.6523ZM45.8984 52.8071C45.7899 53.3461 45.6018 53.838 45.3341 54.2685C45.0665 54.7025 44.7047 55.0498 44.2562 55.303C43.8077 55.5634 43.2506 55.69 42.5887 55.69C41.9268 55.69 41.3733 55.5634 40.9284 55.303C40.4907 55.0498 40.1326 54.7025 39.8686 54.2685C39.6009 53.838 39.4092 53.3461 39.3007 52.8071C39.1885 52.2609 39.1343 51.7039 39.1343 51.136C39.1343 50.5681 39.1885 50.0002 39.3007 49.4468C39.4128 48.897 39.6009 48.4086 39.8686 47.9854C40.1326 47.5622 40.4907 47.2186 40.9284 46.9473C41.3733 46.6832 41.9268 46.5458 42.5887 46.5458C43.2506 46.5458 43.8077 46.6832 44.2562 46.9473C44.7084 47.2186 45.0665 47.5586 45.3341 47.9854C45.6018 48.4086 45.7899 48.897 45.8984 49.4468C46.0105 50.0002 46.0648 50.5645 46.0648 51.136C46.0648 51.7075 46.0105 52.2609 45.8984 52.8071ZM51.1144 58.2582H55.0354V38.541H51.1144V58.2582ZM57.5494 58.2582H61.4704V38.541H57.5494V58.2582ZM76.8579 48.0252C76.507 47.0956 76.0115 46.3071 75.364 45.6523C74.7201 45.0013 73.946 44.4949 73.0345 44.1331C72.1194 43.775 71.1029 43.5978 69.9816 43.5978C68.8603 43.5978 67.8475 43.7714 66.9432 44.1331C66.0389 44.4949 65.2684 45.0013 64.6246 45.6523C63.9807 46.3071 63.4815 47.0956 63.1307 48.0252C62.7798 48.9585 62.6062 49.9893 62.6062 51.136C62.6062 52.2826 62.7762 53.3063 63.1307 54.2287C63.4815 55.1511 63.9807 55.936 64.6246 56.5907C65.2684 57.2418 66.0425 57.7482 66.9432 58.0955C67.8511 58.4463 68.8603 58.6163 69.9816 58.6163C71.1029 58.6163 72.1194 58.4427 73.0345 58.0955C73.946 57.7482 74.7201 57.2454 75.364 56.5907C76.0115 55.936 76.507 55.1511 76.8579 54.2287C77.2087 53.3063 77.3824 52.279 77.3824 51.136C77.3824 49.993 77.2087 48.9585 76.8579 48.0252ZM73.2913 52.8071C73.1864 53.3461 72.9947 53.838 72.7271 54.2685C72.4594 54.7025 72.1013 55.0498 71.6491 55.303C71.2006 55.5634 70.6399 55.69 69.978 55.69C69.316 55.69 68.7626 55.5634 68.3177 55.303C67.8764 55.0498 67.5219 54.7025 67.2542 54.2685C66.9866 53.838 66.8021 53.3461 66.69 52.8071C66.5815 52.2609 66.5272 51.7039 66.5272 51.136C66.5272 50.5681 66.5815 50.0002 66.69 49.4468C66.8021 48.897 66.9866 48.4086 67.2542 47.9854C67.5219 47.5622 67.8764 47.2186 68.3177 46.9473C68.7626 46.6832 69.3124 46.5458 69.978 46.5458C70.6436 46.5458 71.197 46.6832 71.6491 46.9473C72.1013 47.2186 72.4558 47.5586 72.7271 47.9854C72.9911 48.4086 73.1864 48.897 73.2913 49.4468C73.4035 50.0002 73.4613 50.5645 73.4613 51.136C73.4613 51.7075 73.4035 52.2609 73.2913 52.8071Z" fill="white"/>
<path d="M34.9348 40.8163L37.2607 42.6249L39.5865 40.8163V35.3652H34.9348V40.8163ZM39.818 29.415H34.2512V28.0911L21.544 42.4043H28.272L34.895 34.7648H39.818V34.0341H39.8253V29.8092H39.818V29.4186V29.415ZM34.9312 28.8073H39.5829V24.2243L42.039 20.4226H32.1858L34.9312 24.2243V28.8073ZM20.6904 12.7795H7.8313V35.1807H13.8937L27.8596 19.8656L20.6904 12.7795ZM16.0821 20.5529H14.0818V22.5532H12.3238V20.5529H10.3235V18.7949H12.3238V16.7982H14.0818V18.7949H16.0821V20.5529ZM25.9823 34.1643L26.9626 30.728H28.2756V21.1569L14.6859 36.0525V42.6177L21.4717 35.1771H24.6114C24.6114 35.1771 25.7002 35.2893 25.9823 34.1643ZM26.7347 26.0582L25.7363 27.0602L24.738 26.0582H26.7383H26.7347Z" fill="white"/>
<path fill-rule="evenodd" clip-rule="evenodd" d="M31.4876 7.12585C31.4442 7.11138 31.3827 7.09691 31.3393 7.07882C23.4828 5.0532 23.0017 1.33474 23.2115 0C22.6581 1.52645 22.7015 4.53233 23.2875 6.33007C24.2279 7.27054 27.3568 8.64868 30.3808 8.94891C30.7099 8.99231 31.0246 9.05381 31.3393 9.11168C39.2573 10.602 39.9193 17.0586 37.0436 20.1839C37.3547 19.587 40.6789 12.8736 32.533 11.499C32.1279 11.4375 31.7553 11.3652 31.4117 11.3037C25.6459 10.2402 25.125 9.37574 24.8392 9.28531C24.6114 10.2728 26.0365 15.619 31.4117 16.2882H31.4551C36.4974 16.8995 36.9857 19.3953 37.0183 20.2092C37.0183 20.2092 37.0183 20.2092 37.0111 20.2164C37.0111 20.2164 37.0111 20.2092 37.0183 20.2092C37.0183 20.2164 37.0183 20.22 37.0183 20.2273C37.0183 20.2273 37.0255 20.2164 37.0328 20.202C38.4869 19.1638 39.4093 17.2901 39.4961 15.2645V14.7002C39.3622 11.5243 37.1196 8.13866 31.4912 7.12585" fill="#FBB900"/>
<path d="M132.819 35.774C134.118 35.774 135.076 36.823 135.076 38.1215C135.076 39.4201 134.118 40.451 132.855 40.4329C131.557 40.4329 130.58 39.402 130.58 38.1034C130.58 36.8049 131.557 35.774 132.819 35.774ZM132.855 35.188C131.166 35.188 129.835 36.4685 129.835 38.1034C129.835 39.7384 131.166 41.037 132.837 41.037C134.508 41.037 135.822 39.7384 135.822 38.1034C135.822 36.4685 134.508 35.188 132.855 35.188ZM132.392 37.1413C132.465 37.1232 132.588 37.1051 132.765 37.1051C133.192 37.1051 133.387 37.2823 133.387 37.55C133.387 37.8539 133.083 37.9768 132.711 37.9768H132.392V37.1413ZM132.374 38.4543H132.693C133.065 38.4543 133.242 38.5954 133.297 38.8992C133.387 39.2537 133.438 39.5033 133.528 39.6082H134.237C134.183 39.5033 134.114 39.3405 134.024 38.8992C133.933 38.5086 133.792 38.2771 133.51 38.1866V38.1505C133.847 38.0419 134.114 37.8141 134.114 37.456C134.114 37.1702 133.991 36.9568 133.814 36.8338C133.619 36.6927 133.369 36.6023 132.819 36.6023C132.338 36.6023 131.966 36.6566 131.702 36.6927V39.6082H132.378V38.4543H132.374Z" fill="white"/>
</g>
<defs>
<clipPath id="clip0_157_2659">
<rect width="135.822" height="72" fill="white"/>
</clipPath>
</defs>
</svg>
