<svg width="56" height="56" viewBox="0 0 56 56" fill="none" xmlns="http://www.w3.org/2000/svg">
<path d="M44.8875 9.275C42.175 6.7375 38.2375 5.25 33.5125 5.25C31.4125 5.25 29.6625 5.5125 28 6.0375C26.425 5.5125 24.5875 5.25 22.575 5.25H22.4875C22.4 5.25 22.4 5.25 22.3125 5.25C17.7625 5.3375 13.9125 6.7375 11.2875 9.275C8.4875 11.9 7 15.575 7 19.775C7 22.925 8.1375 25.375 9.45 27.65C10.7625 29.925 12.1625 32.1125 12.95 35C13.825 38.325 14.525 42.0875 15.4875 45.15C16.0125 46.6375 16.5375 48.0375 17.325 49C18.1125 49.9625 19.25 50.75 20.65 50.75C21.9625 50.75 23.1875 50.225 23.975 49.2625C24.7625 48.3 25.1125 46.9875 25.1125 45.4125C25.1125 41.475 25.9 36.1375 26.775 31.675C26.95 30.975 27.3875 30.7125 27.9125 30.7125C28.4375 30.7125 28.875 30.8875 28.9625 31.5875C29.75 36.05 30.625 41.3875 30.625 45.4125C30.625 46.9875 30.975 48.3 31.7625 49.2625C32.55 50.225 33.775 50.75 35.0875 50.75C36.4875 50.75 37.625 50.05 38.4125 49C39.2 47.95 39.8125 46.6375 40.25 45.0625C41.2125 42 41.9125 38.2375 42.7875 35C43.575 32.2 44.975 30.0125 46.2875 27.65C47.6 25.375 48.7375 22.925 48.7375 19.775C49.0875 15.575 47.6 11.9 44.8875 9.275ZM44.975 26.775C43.75 29.05 42.175 31.325 41.3 34.475C40.3375 37.8875 39.725 41.65 38.7625 44.5375C38.325 45.9375 37.8 47.1625 37.1875 47.95C36.575 48.7375 36.05 49 35.2625 49C34.3 49 33.6875 48.7375 33.25 48.2125C32.8125 47.6875 32.4625 46.8125 32.4625 45.4125C32.4625 41.2125 31.5875 35.7875 30.8 31.325C30.5375 29.8375 29.225 28.9625 28 28.9625C26.775 28.9625 25.4625 29.8375 25.1125 31.325C24.325 35.875 23.45 41.2125 23.45 45.4125C23.45 46.725 23.1 47.6 22.6625 48.2125C22.225 48.7375 21.6125 49 20.65 49C19.8625 49 19.3375 48.65 18.725 47.95C18.1125 47.25 17.5875 46.025 17.15 44.625C16.1875 41.825 15.575 37.975 14.6125 34.5625C13.7375 31.4125 12.1625 29.05 10.9375 26.8625C9.7125 24.675 8.6625 22.575 8.6625 19.8625C8.6625 16.0125 9.975 12.8625 12.3375 10.5875C14.7 8.4 18.025 7.0875 22.4 7C25.9875 7.2625 29.1375 8.925 31.4125 11.4625C31.7625 11.8125 32.2875 11.9 32.6375 11.55C32.9875 11.2 33.075 10.675 32.725 10.325C31.7625 9.1875 30.625 8.225 29.4 7.525C30.625 7.175 32.025 7 33.5125 7C37.8875 7 41.3 8.3125 43.6625 10.5875C46.025 12.775 47.25 15.925 47.25 19.8625C47.25 22.4875 46.2875 24.5875 44.975 26.775Z" fill="#00779C"/>
<path d="M39.4629 10.9375C38.9379 10.9375 38.5879 11.2875 38.5879 11.8125C38.5879 12.1625 38.7629 12.425 39.0254 12.6C39.7254 12.95 40.2504 13.3875 40.7754 13.9125C42.1754 15.3125 42.8754 17.325 42.8754 19.8625C42.8754 21.525 42.2629 22.8375 41.0379 25.025C40.7754 25.4625 40.9504 25.9875 41.3004 26.25C41.6504 26.5125 42.2629 26.3375 42.5254 25.9875C43.8379 23.625 44.6254 21.875 44.6254 19.775C44.6254 16.8875 43.7504 14.35 42.0004 12.6C41.3879 11.9875 40.6879 11.4625 39.9004 11.025C39.8129 10.9375 39.6379 10.9375 39.4629 10.9375Z" fill="#FE6E35"/>
<path d="M18.375 20.125C19.8247 20.125 21 18.9497 21 17.5C21 16.0503 19.8247 14.875 18.375 14.875C16.9253 14.875 15.75 16.0503 15.75 17.5C15.75 18.9497 16.9253 20.125 18.375 20.125Z" fill="#FE6E35"/>
<path d="M39.9876 27.5625C39.6376 27.5625 39.3751 27.7375 39.2876 28.0875C38.7626 29.225 38.4126 30.1 37.8876 31.15C37.7126 31.5875 37.8876 32.1125 38.3251 32.2875C38.7626 32.4625 39.2876 32.2875 39.4626 31.85C39.9876 30.7125 40.2501 29.8375 40.7751 28.7875C41.0376 28.35 40.8626 27.825 40.4251 27.65C40.3376 27.5625 40.1626 27.5625 39.9876 27.5625Z" fill="#FE6E35"/>
</svg>
