<svg width="56" height="56" viewBox="0 0 56 56" fill="none" xmlns="http://www.w3.org/2000/svg">
<path d="M10.5 5.25C9.975 5.25 9.625 5.6 9.625 6.125C9.625 6.65 9.975 7 10.5 7H13.125V49H12.25C11.725 49 11.375 49.35 11.375 49.875C11.375 50.4 11.725 50.75 12.25 50.75H14H42H43.75C44.275 50.75 44.625 50.4 44.625 49.875C44.625 49.35 44.275 49 43.75 49H42.875V16.1L46.2 11.9875C46.2875 11.8125 46.375 11.6375 46.375 11.4625C46.375 8.05 43.6625 5.3375 40.25 5.3375H39.375H10.5V5.25ZM14.875 7H39.375H40.25C42.525 7 44.45 8.8375 44.625 11.1125L41.3 15.225C41.2125 15.4 41.125 15.575 41.125 15.75V17.5H39.375C38.9375 17.5 38.5 17.9375 38.5 18.375C38.5 18.8125 38.9375 19.25 39.375 19.25H41.125V49H14.875V42H17.5C18.025 42 18.375 41.65 18.375 41.125C18.375 40.6 18.025 40.25 17.5 40.25H14.875V38.5H20.125C20.65 38.5 21 38.15 21 37.625C21 37.1 20.65 36.75 20.125 36.75H14.875V35H17.5C18.025 35 18.375 34.65 18.375 34.125C18.375 33.6 18.025 33.25 17.5 33.25H14.875V31.5H20.125C20.65 31.5 21 31.15 21 30.625C21 30.1 20.65 29.75 20.125 29.75H14.875V28H17.5C18.025 28 18.375 27.65 18.375 27.125C18.375 26.6 18.025 26.25 17.5 26.25H14.875V24.5H20.125C20.65 24.5 21 24.15 21 23.625C21 23.1 20.65 22.75 20.125 22.75H14.875V19.25H28C28.4375 19.25 28.875 18.8125 28.875 18.375C28.875 17.9375 28.4375 17.5 28 17.5H14.875V7ZM31.5 17.5C31.0625 17.5 30.625 17.9375 30.625 18.375C30.625 18.8125 31.0625 19.25 31.5 19.25H35.875C36.3125 19.25 36.75 18.8125 36.75 18.375C36.75 17.9375 36.3125 17.5 35.875 17.5H31.5ZM15.75 44.625C15.4875 44.625 15.3125 44.8 15.3125 45.0625V45.9375C15.3125 46.2 15.4875 46.375 15.75 46.375C16.0125 46.375 16.1875 46.2 16.1875 45.9375V45.0625C16.1875 44.8 16.0125 44.625 15.75 44.625ZM18.025 44.625C17.7625 44.625 17.5875 44.8 17.5875 45.0625V45.9375C17.5875 46.2 17.7625 46.375 18.025 46.375C18.2875 46.375 18.4625 46.2 18.4625 45.9375V45.0625C18.4625 44.8 18.2 44.625 18.025 44.625ZM20.2125 44.625C19.95 44.625 19.775 44.8 19.775 45.0625V45.9375C19.775 46.2 19.95 46.375 20.2125 46.375C20.475 46.375 20.65 46.2 20.65 45.9375V45.0625C20.65 44.8 20.475 44.625 20.2125 44.625ZM22.4875 44.625C22.225 44.625 22.05 44.8 22.05 45.0625V45.9375C22.05 46.2 22.225 46.375 22.4875 46.375C22.75 46.375 22.925 46.2 22.925 45.9375V45.0625C22.925 44.8 22.6625 44.625 22.4875 44.625ZM24.675 44.625C24.4125 44.625 24.2375 44.8 24.2375 45.0625V45.9375C24.2375 46.2 24.4125 46.375 24.675 46.375C24.9375 46.375 25.1125 46.2 25.1125 45.9375V45.0625C25.1125 44.8 24.9375 44.625 24.675 44.625ZM26.8625 44.625C26.6 44.625 26.425 44.8 26.425 45.0625V45.9375C26.425 46.2 26.6 46.375 26.8625 46.375C27.125 46.375 27.3 46.2 27.3 45.9375V45.0625C27.3 44.8 27.125 44.625 26.8625 44.625ZM29.1375 44.625C28.875 44.625 28.7 44.8 28.7 45.0625V45.9375C28.7 46.2 28.875 46.375 29.1375 46.375C29.4 46.375 29.575 46.2 29.575 45.9375V45.0625C29.575 44.8 29.3125 44.625 29.1375 44.625ZM31.325 44.625C31.0625 44.625 30.8875 44.8 30.8875 45.0625V45.9375C30.8875 46.2 31.0625 46.375 31.325 46.375C31.5875 46.375 31.7625 46.2 31.7625 45.9375V45.0625C31.7625 44.8 31.5875 44.625 31.325 44.625ZM33.5125 44.625C33.25 44.625 33.075 44.8 33.075 45.0625V45.9375C33.075 46.2 33.25 46.375 33.5125 46.375C33.775 46.375 33.95 46.2 33.95 45.9375V45.0625C33.95 44.8 33.775 44.625 33.5125 44.625ZM35.7875 44.625C35.525 44.625 35.35 44.8 35.35 45.0625V45.9375C35.35 46.2 35.525 46.375 35.7875 46.375C36.05 46.375 36.225 46.2 36.225 45.9375V45.0625C36.225 44.8 36.05 44.625 35.7875 44.625ZM37.975 44.625C37.7125 44.625 37.5375 44.8 37.5375 45.0625V45.9375C37.5375 46.2 37.7125 46.375 37.975 46.375C38.2375 46.375 38.4125 46.2 38.4125 45.9375V45.0625C38.4125 44.8 38.2375 44.625 37.975 44.625ZM40.25 44.625C39.9875 44.625 39.8125 44.8 39.8125 45.0625V45.9375C39.8125 46.2 39.9875 46.375 40.25 46.375C40.5125 46.375 40.6875 46.2 40.6875 45.9375V45.0625C40.6875 44.8 40.425 44.625 40.25 44.625Z" fill="#00649C"/>
<path d="M45.0625 16.1875C44.8 16.1875 44.625 16.3625 44.625 16.625C44.625 16.8875 44.8 17.0625 45.0625 17.0625H45.9375C46.2 17.0625 46.375 16.8875 46.375 16.625C46.375 16.3625 46.2 16.1875 45.9375 16.1875H45.0625Z" fill="#FE6E35"/>
<path d="M45.0625 18.4624C44.8 18.4624 44.625 18.6374 44.625 18.8999C44.625 19.1624 44.8 19.3374 45.0625 19.3374H45.9375C46.2 19.3374 46.375 19.1624 46.375 18.8999C46.375 18.6374 46.2 18.4624 45.9375 18.4624H45.0625Z" fill="#FE6E35"/>
<path d="M45.0625 20.6499C44.8 20.6499 44.625 20.8249 44.625 21.0874C44.625 21.3499 44.8 21.5249 45.0625 21.5249H45.9375C46.2 21.5249 46.375 21.3499 46.375 21.0874C46.375 20.8249 46.2 20.6499 45.9375 20.6499H45.0625Z" fill="#FE6E35"/>
<path d="M45.0625 22.925C44.8 22.925 44.625 23.1 44.625 23.3625C44.625 23.625 44.8 23.8 45.0625 23.8H45.9375C46.2 23.8 46.375 23.625 46.375 23.3625C46.375 23.1 46.2 22.925 45.9375 22.925H45.0625Z" fill="#FE6E35"/>
<path d="M45.0625 25.1125C44.8 25.1125 44.625 25.2875 44.625 25.55C44.625 25.8125 44.8 25.9875 45.0625 25.9875H45.9375C46.2 25.9875 46.375 25.8125 46.375 25.55C46.375 25.2875 46.2 25.1125 45.9375 25.1125H45.0625Z" fill="#FE6E35"/>
<path d="M45.0625 27.3C44.8 27.3 44.625 27.475 44.625 27.7375C44.625 28 44.8 28.175 45.0625 28.175H45.9375C46.2 28.175 46.375 28 46.375 27.7375C46.375 27.475 46.2 27.3 45.9375 27.3H45.0625Z" fill="#FE6E35"/>
<path d="M45.0625 29.575C44.8 29.575 44.625 29.75 44.625 30.0125C44.625 30.275 44.8 30.45 45.0625 30.45H45.9375C46.2 30.45 46.375 30.275 46.375 30.0125C46.375 29.75 46.2 29.575 45.9375 29.575H45.0625Z" fill="#FE6E35"/>
<path d="M45.0625 31.7625C44.8 31.7625 44.625 31.9375 44.625 32.2C44.625 32.4625 44.8 32.6375 45.0625 32.6375H45.9375C46.2 32.6375 46.375 32.4625 46.375 32.2C46.375 31.9375 46.2 31.7625 45.9375 31.7625H45.0625Z" fill="#FE6E35"/>
<path d="M45.0625 33.95C44.8 33.95 44.625 34.125 44.625 34.3875C44.625 34.65 44.8 34.825 45.0625 34.825H45.9375C46.2 34.825 46.375 34.65 46.375 34.3875C46.375 34.125 46.2 33.95 45.9375 33.95H45.0625Z" fill="#FE6E35"/>
<path d="M45.0625 36.2251C44.8 36.2251 44.625 36.4001 44.625 36.6626C44.625 36.9251 44.8 37.1001 45.0625 37.1001H45.9375C46.2 37.1001 46.375 36.9251 46.375 36.6626C46.375 36.4001 46.2 36.2251 45.9375 36.2251H45.0625Z" fill="#FE6E35"/>
<path d="M45.0625 38.4126C44.8 38.4126 44.625 38.5876 44.625 38.8501C44.625 39.1126 44.8 39.2876 45.0625 39.2876H45.9375C46.2 39.2876 46.375 39.1126 46.375 38.8501C46.375 38.5876 46.2 38.4126 45.9375 38.4126H45.0625Z" fill="#FE6E35"/>
<path d="M45.0625 40.6875C44.8 40.6875 44.625 40.8625 44.625 41.125C44.625 41.3875 44.8 41.5625 45.0625 41.5625H45.9375C46.2 41.5625 46.375 41.3875 46.375 41.125C46.375 40.8625 46.2 40.6875 45.9375 40.6875H45.0625Z" fill="#FE6E35"/>
<path d="M36.3125 28.875C38.0039 28.875 39.375 27.5039 39.375 25.8125C39.375 24.1211 38.0039 22.75 36.3125 22.75C34.6211 22.75 33.25 24.1211 33.25 25.8125C33.25 27.5039 34.6211 28.875 36.3125 28.875Z" fill="#FE6E35"/>
<path d="M36.3125 27.125C37.0374 27.125 37.625 26.5374 37.625 25.8125C37.625 25.0876 37.0374 24.5 36.3125 24.5C35.5876 24.5 35 25.0876 35 25.8125C35 26.5374 35.5876 27.125 36.3125 27.125Z" fill="#FE6E35"/>
<path d="M28 35.875C29.4497 35.875 30.625 34.6997 30.625 33.25C30.625 31.8003 29.4497 30.625 28 30.625C26.5503 30.625 25.375 31.8003 25.375 33.25C25.375 34.6997 26.5503 35.875 28 35.875Z" fill="#FE6E35"/>
<path d="M28 34.125C28.4832 34.125 28.875 33.7332 28.875 33.25C28.875 32.7668 28.4832 32.375 28 32.375C27.5168 32.375 27.125 32.7668 27.125 33.25C27.125 33.7332 27.5168 34.125 28 34.125Z" fill="#FE6E35"/>
<path d="M35.875 40.25C36.8415 40.25 37.625 39.4665 37.625 38.5C37.625 37.5335 36.8415 36.75 35.875 36.75C34.9085 36.75 34.125 37.5335 34.125 38.5C34.125 39.4665 34.9085 40.25 35.875 40.25Z" fill="#FE6E35"/>
</svg>
