<svg width="56" height="56" viewBox="0 0 56 56" fill="none" xmlns="http://www.w3.org/2000/svg">
<path d="M16.0996 5.25C12.4246 5.25 8.74961 6.65 5.86211 9.45C3.14961 12.25 1.66211 15.8375 1.66211 19.775C1.66211 23.625 3.14961 27.3 5.86211 30.0125L23.1871 47.25C23.1871 47.25 23.1871 47.3375 23.2746 47.3375L24.4996 48.5625C24.4996 48.5625 24.5871 48.5625 24.5871 48.65L26.1621 50.225C26.6871 50.75 27.2996 51.0125 27.9996 51.0125C28.6996 51.0125 29.3996 50.75 29.8371 50.225L50.0496 30.0125C52.7621 27.2125 54.2496 23.625 54.2496 19.775C54.2496 15.925 52.7621 12.25 50.0496 9.5375C44.3621 3.85 35.1746 3.85 29.5746 9.5375L27.9996 11.1125L26.4246 9.5375C23.5371 6.65 19.8621 5.25 16.0996 5.25ZM16.0996 7C19.3371 7 22.6621 8.225 25.1121 10.7625L26.6871 12.3375L24.7621 14.2625C24.4121 14.6125 24.4121 15.1375 24.7621 15.4875C24.9371 15.6625 25.1121 15.75 25.3746 15.75C25.6371 15.75 25.8121 15.6625 25.9871 15.4875L29.5746 11.9L30.7996 10.675C35.7871 5.6875 43.8371 5.6875 48.8246 10.675C51.1871 13.125 52.4996 16.3625 52.4996 19.775C52.4996 23.1875 51.1871 26.3375 48.7371 28.7875L28.6121 48.9125C28.2621 49.2625 27.7371 49.2625 27.3871 48.9125L7.08711 28.7C4.72461 26.3375 3.32461 23.1 3.32461 19.6875C3.32461 16.275 4.63711 13.125 7.08711 10.675C9.62461 8.225 12.8621 7 16.0996 7Z" fill="#00779C"/>
<path d="M22.75 16.625C22.4875 16.625 22.3125 16.7125 22.1375 16.8875L20.3875 18.6375C20.0375 18.9875 20.0375 19.5125 20.3875 19.8625C20.5625 20.0375 20.7375 20.125 21 20.125C21.2625 20.125 21.4375 20.0375 21.6125 19.8625L23.3625 18.1125C23.7125 17.7625 23.7125 17.2375 23.3625 16.8875C23.1875 16.7125 23.0125 16.625 22.75 16.625Z" fill="#FE6E35"/>
<path d="M40.25 16.625C39.9875 16.625 39.8125 16.7125 39.6375 16.8875L25.375 31.15L18.9875 24.7625C18.6375 24.4125 18.1125 24.4125 17.7625 24.7625C17.4125 25.1125 17.4125 25.6375 17.7625 25.9875L24.7625 32.9875C24.9375 33.1625 25.1125 33.25 25.375 33.25C25.6375 33.25 25.8125 33.1625 25.9875 32.9875L40.8625 18.1125C41.2125 17.7625 41.2125 17.2375 40.8625 16.8875C40.6875 16.7125 40.5125 16.625 40.25 16.625Z" fill="#FE6E35"/>
<path d="M45.5 24.1499C45.2375 24.1499 45.0625 24.2374 44.8875 24.4124C44.5375 24.7624 44.5375 25.2874 44.8875 25.6374L46.1125 26.8624C46.2875 27.0374 46.55 27.1249 46.725 27.1249C46.9875 27.1249 47.1625 27.0374 47.3375 26.8624C47.6875 26.5124 47.6875 25.9874 47.3375 25.6374L46.1125 24.4124C45.9375 24.2374 45.675 24.1499 45.5 24.1499Z" fill="#FE6E35"/>
<path d="M42.3496 27.2998C42.0871 27.2998 41.9121 27.3873 41.7371 27.5623C41.3871 27.9123 41.3871 28.4373 41.7371 28.7873L42.9621 30.0123C43.1371 30.1873 43.3996 30.2748 43.5746 30.2748C43.8371 30.2748 44.0121 30.1873 44.1871 30.0123C44.5371 29.6623 44.5371 29.1373 44.1871 28.7873L42.9621 27.5623C42.7871 27.2998 42.6121 27.2998 42.3496 27.2998Z" fill="#FE6E35"/>
<path d="M39.2871 30.3623C39.0246 30.3623 38.8496 30.4498 38.6746 30.6248C38.3246 30.9748 38.3246 31.4998 38.6746 31.8498L39.8996 33.0748C40.0746 33.2498 40.2496 33.3373 40.5121 33.3373C40.7746 33.3373 40.9496 33.2498 41.1246 33.0748C41.4746 32.7248 41.4746 32.1998 41.1246 31.8498L39.8996 30.6248C39.7246 30.4498 39.5496 30.3623 39.2871 30.3623Z" fill="#FE6E35"/>
<path d="M36.2246 33.4248C35.9621 33.4248 35.7871 33.5123 35.6121 33.6873C35.2621 34.0373 35.2621 34.5623 35.6121 34.9123L36.8371 36.1373C37.0121 36.3123 37.1871 36.3998 37.4496 36.3998C37.7121 36.3998 37.8871 36.3123 38.0621 36.1373C38.4121 35.7873 38.4121 35.2623 38.0621 34.9123L36.8371 33.6873C36.6621 33.5123 36.3996 33.4248 36.2246 33.4248Z" fill="#FE6E35"/>
<path d="M33.0752 36.575C32.8127 36.575 32.6377 36.6625 32.4627 36.8375C32.1127 37.1875 32.1127 37.7125 32.4627 38.0625L33.6877 39.2875C33.8627 39.4625 34.0377 39.55 34.3002 39.55C34.5627 39.55 34.7377 39.4625 34.9127 39.2875C35.2627 38.9375 35.2627 38.4125 34.9127 38.0625L33.6877 36.8375C33.5127 36.6625 33.3377 36.575 33.0752 36.575Z" fill="#FE6E35"/>
<path d="M30.0127 39.6375C29.7502 39.6375 29.5752 39.725 29.4002 39.9C29.0502 40.25 29.0502 40.775 29.4002 41.125L30.6252 42.35C30.8002 42.525 30.9752 42.6125 31.2377 42.6125C31.5002 42.6125 31.6752 42.525 31.8502 42.35C32.2002 42 32.2002 41.475 31.8502 41.125L30.6252 39.9C30.4502 39.725 30.1877 39.6375 30.0127 39.6375Z" fill="#FE6E35"/>
<path d="M26.9502 42.7C26.6877 42.7 26.5127 42.7875 26.3377 42.9625C25.9877 43.3125 25.9877 43.8375 26.3377 44.1875L27.5627 45.4125C27.7377 45.5875 27.9127 45.675 28.1752 45.675C28.4377 45.675 28.6127 45.5875 28.7877 45.4125C29.1377 45.0625 29.1377 44.5375 28.7877 44.1875L27.5627 42.9625C27.3877 42.7875 27.1252 42.7 26.9502 42.7Z" fill="#FE6E35"/>
</svg>
