<svg width="56" height="56" viewBox="0 0 56 56" fill="none" xmlns="http://www.w3.org/2000/svg">
<path d="M19.5125 0C19.1625 0 18.8125 0.0875 18.55 0.2625L14 2.8875C13.5625 3.15 13.3 3.5 13.2125 3.9375C13.0375 4.375 13.125 4.8125 13.3875 5.25L16.0125 9.8L15.225 10.2375C14 10.9375 13.5625 12.6 14.2625 13.825L18.2 20.65C17.2375 21.175 16.5375 22.05 16.0125 23.0125C10.7625 24.0625 7 28.7 7 34.125V54.25H4.375C3.85 54.25 3.5 54.6 3.5 55.125C3.5 55.65 3.85 56 4.375 56H51.625C52.15 56 52.5 55.65 52.5 55.125C52.5 54.6 52.15 54.25 51.625 54.25H49V51.625C49 50.225 47.775 49 46.375 49H38.2375L47.5125 43.6625C48.7375 42.9625 49.2625 41.475 48.65 40.25C48.3875 39.55 47.775 39.025 47.075 38.85C46.375 38.675 45.5875 38.675 44.975 39.1125L33.8625 45.5H14V35.875C14 33.075 15.925 30.625 18.6375 29.925C18.9 30.1 19.1625 30.1875 19.5125 30.275C20.9125 30.625 22.3125 30.45 23.5375 29.75L27.9125 37.3625C26.6875 38.0625 26.25 39.725 26.95 40.95C27.475 41.825 28.35 42.2625 29.225 42.2625C29.6625 42.2625 30.1 42.175 30.5375 41.9125L44.1875 34.0375C45.4125 33.3375 45.85 31.675 45.15 30.45C44.45 29.225 42.7875 28.7875 41.5625 29.4875L27.9125 5.95C27.2125 4.725 25.55 4.2875 24.325 4.9875L23.5375 5.425L20.9125 0.875C20.65 0.35 20.125 0.0875 19.5125 0ZM19.425 1.75L22.05 6.3L17.5 8.925L14.875 4.375L19.425 1.75ZM25.55 6.3875C25.9 6.3 26.25 6.475 26.425 6.825L39.9875 30.3625L33.8625 33.8625L29.3125 36.4875L24.9375 28.875C24.675 28.4375 24.325 28.175 23.8875 28.0875C23.7125 28 23.625 28 23.45 28C23.1875 28 22.8375 28.0875 22.575 28.2625C21.7875 28.7 20.825 28.875 19.95 28.6125C19.6875 28.525 19.3375 28.4375 19.075 28.2625C18.55 28 18.1125 27.5625 17.7625 26.95C17.325 26.1625 17.15 25.2 17.4125 24.325C17.5 24.15 17.5 23.975 17.5875 23.8C17.85 23.1 18.375 22.575 19.075 22.1375C19.5125 21.875 19.775 21.525 19.8625 21.0875C19.95 20.65 19.95 20.125 19.6875 19.775L15.75 12.95C15.6625 12.775 15.575 12.5125 15.6625 12.25C15.75 11.9875 15.8375 11.8125 16.1 11.725L16.8875 11.2875L24.4125 6.9125L25.2 6.475C25.2875 6.475 25.375 6.3875 25.55 6.3875ZM15.575 24.9375C15.4875 25.9 15.75 26.95 16.275 27.825C16.45 28.175 16.625 28.4375 16.8875 28.7C14.0875 29.925 12.25 32.725 12.25 35.875V45.5C12.25 46.4625 13.0375 47.25 14 47.25H34.0375C34.2125 47.25 34.3875 47.1625 34.475 47.1625L45.85 40.6C46.025 40.5125 46.2875 40.425 46.55 40.5125C46.8125 40.6 46.9875 40.775 47.075 40.95C47.25 41.3875 47.075 41.9125 46.6375 42.0875L35.4375 48.5625C35.2625 48.65 35.175 48.825 35.0875 48.9125H20.125C19.6 48.9125 19.25 49.2625 19.25 49.7875C19.25 50.3125 19.6 50.6625 20.125 50.6625H46.375C46.9 50.6625 47.25 51.0125 47.25 51.5375V54.1625H8.75V34.125C8.75 29.8375 11.55 26.075 15.575 24.9375ZM42.7875 30.8C43.05 30.8 43.4 30.975 43.575 31.2375C43.8375 31.675 43.6625 32.2 43.225 32.4625L29.575 40.3375C29.1375 40.6 28.6125 40.425 28.35 39.9875C28.0875 39.55 28.2625 39.025 28.7 38.7625L42.35 30.8875C42.525 30.8875 42.6125 30.8 42.7875 30.8ZM13.125 49C12.6 49 12.25 49.35 12.25 49.875C12.25 50.4 12.6 50.75 13.125 50.75H16.625C17.15 50.75 17.5 50.4 17.5 49.875C17.5 49.35 17.15 49 16.625 49H13.125Z" fill="#00779C"/>
<path d="M24.937 9.09993C24.8495 9.09993 24.6745 9.18744 24.587 9.18744L23.0995 10.0624C22.662 10.3249 22.5745 10.8499 22.7495 11.2874C22.9245 11.5499 23.187 11.7249 23.537 11.7249C23.712 11.7249 23.7995 11.7249 23.9745 11.6374L25.462 10.7624C25.8995 10.4999 25.987 9.97493 25.812 9.53743C25.637 9.18743 25.287 9.01243 24.937 9.09993Z" fill="#FE6E35"/>
<path d="M27.1245 12.8626C27.037 12.8626 26.862 12.9501 26.7745 12.9501L25.287 13.8251C24.8495 14.0876 24.762 14.6126 24.937 15.0501C25.112 15.3126 25.3745 15.4876 25.7245 15.4876C25.8995 15.4876 25.987 15.4876 26.162 15.4001L27.6495 14.5251C28.087 14.2626 28.1745 13.7376 27.9995 13.3001C27.8245 12.9501 27.4745 12.7751 27.1245 12.8626Z" fill="#FE6E35"/>
<path d="M29.312 16.625C29.2245 16.625 29.0495 16.7125 28.962 16.7125L27.4745 17.5875C27.037 17.85 26.9495 18.375 27.1245 18.8125C27.2995 19.075 27.562 19.25 27.912 19.25C28.087 19.25 28.1745 19.25 28.3495 19.1625L29.837 18.2875C30.2745 18.025 30.362 17.5 30.187 17.0625C30.012 16.7125 29.662 16.625 29.312 16.625Z" fill="#FE6E35"/>
<path d="M31.4995 20.3877C31.412 20.3877 31.237 20.4752 31.1495 20.4752L29.662 21.3502C29.2245 21.6127 29.137 22.1377 29.312 22.5752C29.487 22.8377 29.7495 23.0127 30.0995 23.0127C30.2745 23.0127 30.362 23.0127 30.537 22.9252L32.0245 22.0502C32.462 21.7877 32.5495 21.2627 32.3745 20.8252C32.1995 20.5627 31.8495 20.3877 31.4995 20.3877Z" fill="#FE6E35"/>
<path d="M33.687 24.2376C33.5995 24.2376 33.4245 24.3251 33.337 24.3251L31.8495 25.2001C31.412 25.4626 31.3245 25.9876 31.4995 26.4251C31.6745 26.6876 31.937 26.8626 32.287 26.8626C32.462 26.8626 32.5495 26.8626 32.7245 26.7751L34.212 25.9001C34.6495 25.6376 34.737 25.1126 34.562 24.6751C34.387 24.3251 34.037 24.1501 33.687 24.2376Z" fill="#FE6E35"/>
<path d="M35.8745 28C35.787 28 35.612 28.0875 35.5245 28.0875L34.037 28.9625C33.5995 29.225 33.512 29.75 33.687 30.1875C33.862 30.45 34.1245 30.625 34.4745 30.625C34.6495 30.625 34.737 30.625 34.912 30.5375L36.3995 29.6625C36.837 29.4 36.9245 28.875 36.7495 28.4375C36.5745 28.0875 36.2245 28 35.8745 28Z" fill="#FE6E35"/>
<path d="M20.9127 23.45C20.5627 23.45 20.2127 23.5375 19.9502 23.7125C19.5127 23.975 19.2502 24.325 19.1627 24.7625C19.0752 25.2 19.0752 25.725 19.3377 26.075C19.6877 26.6 20.2127 26.95 20.8252 26.95C21.0877 26.95 21.4377 26.8625 21.7002 26.6875C22.5752 26.1625 22.8377 25.1125 22.3127 24.325C22.0502 23.8875 21.7002 23.625 21.2627 23.5375C21.1752 23.45 21.0877 23.45 20.9127 23.45Z" fill="#FE6E35"/>
</svg>
