<svg width="56" height="56" viewBox="0 0 56 56" fill="none" xmlns="http://www.w3.org/2000/svg">
<path d="M28 0C25.6375 0 23.275 0.2625 21 0.7C19.075 1.05 17.5875 2.5375 17.2375 4.4625L14.875 16.975C14.7875 17.2375 14.875 17.5875 15.1375 17.7625C15.3125 17.9375 15.575 18.025 15.8375 18.025C15.8375 18.375 15.8375 18.8125 15.75 19.3375C15.6625 19.3375 15.4875 19.3375 15.4 19.425C14.6125 19.6 14.0875 20.3 13.825 21.4375C13.65 22.3125 13.7375 23.3625 14 24.4125C14.4375 26.1625 15.4875 27.475 16.5375 27.825C16.8875 28.9625 17.325 30.0125 17.9375 31.0625L7.175 36.225C3.9375 37.8 1.75 41.2125 1.75 44.8875V51.625C1.75 53.025 2.975 54.25 4.375 54.25H51.625C53.025 54.25 54.25 53.025 54.25 51.625V44.8875C54.25 41.2125 52.0625 37.8 48.825 36.225L38.0625 31.0625C38.675 30.0125 39.1125 28.875 39.4625 27.825C40.5125 27.3875 41.475 26.075 42 24.4125C42.2625 23.3625 42.35 22.3125 42.175 21.4375C42 20.3875 41.3875 19.6875 40.6 19.425C40.5125 19.425 40.425 19.3375 40.25 19.3375C40.25 18.8125 40.25 18.375 40.1625 18.025H40.25C40.5125 18.025 40.6875 17.9375 40.8625 17.7625C41.0375 17.5875 41.125 17.2375 41.125 16.975L38.7625 4.4625C38.4125 2.5375 36.925 1.05 35 0.7C32.725 0.2625 30.3625 0 28 0ZM28 1.75C30.275 1.75 32.4625 1.925 34.65 2.45C35.875 2.7125 36.75 3.5875 37.0125 4.8125L39.1125 16.1L34.7375 15.225C30.275 14.35 25.725 14.35 21.175 15.225L16.8 16.1L18.9 4.8125C19.1625 3.5875 20.0375 2.7125 21.2625 2.45C23.5375 2.0125 25.725 1.75 28 1.75ZM28 16.3625C30.1875 16.3625 32.2875 16.5375 34.475 16.975L38.4125 17.7625C38.4125 18.2875 38.5 19.425 38.5 19.8625C38.5 20.125 38.5 20.3875 38.5 20.5625C38.5 20.9125 38.675 21.175 38.9375 21.35C39.2 21.525 39.55 21.4375 39.8125 21.2625C39.9875 21.175 40.075 21.175 40.075 21.175C40.075 21.175 40.25 21.35 40.3375 21.7875C40.425 22.4 40.425 23.1875 40.1625 23.8875C39.9875 24.675 39.6375 25.2875 39.375 25.6375C39.1125 25.9875 38.85 26.1625 38.675 26.1625C38.325 26.1625 37.975 26.425 37.8 26.775C37.45 28 36.925 29.1375 36.3125 30.275C36.05 30.8 35.7 31.325 35.4375 31.7625C33.6 34.65 30.975 36.75 28 36.75C25.025 36.75 22.4 34.65 20.475 31.7625C20.125 31.2375 19.8625 30.8 19.6 30.275C18.9875 29.1375 18.4625 27.9125 18.1125 26.775C18.025 26.425 17.675 26.1625 17.2375 26.1625C16.975 26.1625 16.1875 25.4625 15.75 23.8875C15.575 23.1 15.4875 22.3125 15.575 21.7875C15.6625 21.2625 15.8375 21.175 15.8375 21.175C15.8375 21.175 15.925 21.175 16.1 21.2625C16.3625 21.4375 16.7125 21.4375 16.975 21.35C17.2375 21.175 17.4125 20.9125 17.4125 20.5625V19.95C17.4125 19.425 17.5 18.2875 17.5 17.7625L21.4375 16.975C23.7125 16.5375 25.8125 16.3625 28 16.3625ZM18.9 32.55C21.175 35.9625 24.4125 38.5 28 38.5C31.5875 38.5 34.825 35.9625 37.1 32.55L38.2375 33.075L30.0125 52.5H25.9L17.7625 33.075L18.9 32.55ZM16.275 33.8625L24.0625 52.5H4.375C3.85 52.5 3.5 52.15 3.5 51.625V44.8875C3.5 41.9125 5.25 39.1125 7.9625 37.8L16.275 33.8625ZM39.725 33.8625L47.95 37.8C50.6625 39.1125 52.4125 41.9125 52.4125 44.8875V51.625C52.4125 52.15 52.0625 52.5 51.5375 52.5H31.9375L39.725 33.8625Z" fill="#00779C"/>
<path d="M28 4.375C27.475 4.375 27.125 4.725 27.125 5.25V7.875H24.5C23.975 7.875 23.625 8.225 23.625 8.75C23.625 9.275 23.975 9.625 24.5 9.625H27.125V12.25C27.125 12.775 27.475 13.125 28 13.125C28.525 13.125 28.875 12.775 28.875 12.25V9.625H31.5C32.025 9.625 32.375 9.275 32.375 8.75C32.375 8.225 32.025 7.875 31.5 7.875H28.875V5.25C28.875 4.725 28.525 4.375 28 4.375Z" fill="#FE6E35"/>
<path d="M6.125 47.25C5.6 47.25 5.25 47.6 5.25 48.125V49.875C5.25 50.4 5.6 50.75 6.125 50.75C6.65 50.75 7 50.4 7 49.875V48.125C7 47.6 6.65 47.25 6.125 47.25Z" fill="#FE6E35"/>
<path d="M10.5 47.25C9.975 47.25 9.625 47.6 9.625 48.125V49.875C9.625 50.4 9.975 50.75 10.5 50.75C11.025 50.75 11.375 50.4 11.375 49.875V48.125C11.375 47.6 11.025 47.25 10.5 47.25Z" fill="#FE6E35"/>
<path d="M14.875 47.25C14.35 47.25 14 47.6 14 48.125V49.875C14 50.4 14.35 50.75 14.875 50.75C15.4 50.75 15.75 50.4 15.75 49.875V48.125C15.75 47.6 15.4 47.25 14.875 47.25Z" fill="#FE6E35"/>
<path d="M19.25 47.25C18.725 47.25 18.375 47.6 18.375 48.125V49.875C18.375 50.4 18.725 50.75 19.25 50.75C19.775 50.75 20.125 50.4 20.125 49.875V48.125C20.125 47.6 19.775 47.25 19.25 47.25Z" fill="#FE6E35"/>
<path d="M36.75 47.25C36.225 47.25 35.875 47.6 35.875 48.125V49.875C35.875 50.4 36.225 50.75 36.75 50.75C37.275 50.75 37.625 50.4 37.625 49.875V48.125C37.625 47.6 37.275 47.25 36.75 47.25Z" fill="#FE6E35"/>
<path d="M41.125 47.25C40.6 47.25 40.25 47.6 40.25 48.125V49.875C40.25 50.4 40.6 50.75 41.125 50.75C41.65 50.75 42 50.4 42 49.875V48.125C42 47.6 41.65 47.25 41.125 47.25Z" fill="#FE6E35"/>
<path d="M45.5 47.25C44.975 47.25 44.625 47.6 44.625 48.125V49.875C44.625 50.4 44.975 50.75 45.5 50.75C46.025 50.75 46.375 50.4 46.375 49.875V48.125C46.375 47.6 46.025 47.25 45.5 47.25Z" fill="#FE6E35"/>
<path d="M49.875 47.25C49.35 47.25 49 47.6 49 48.125V49.875C49 50.4 49.35 50.75 49.875 50.75C50.4 50.75 50.75 50.4 50.75 49.875V48.125C50.75 47.6 50.4 47.25 49.875 47.25Z" fill="#FE6E35"/>
</svg>
